#N canvas 761 190 620 457 10;
#X obj 282 84 inlet bang;
#X obj 288 346 outlet;
#X obj 282 178 random 5;
#X obj 270 209 select 0 1 2 3 4;
#X msg 187 248 1 -3 -3 -2;
#X msg 270 249 1 -2 -1 -5;
#X msg 342 248 1 -3 -1 -4;
#X msg 419 246 1 -1 1 -7;
#X msg 497 247 1 -1 -2 -5;
#X connect 0 0 2 0;
#X connect 2 0 3 0;
#X connect 3 0 4 0;
#X connect 3 1 5 0;
#X connect 3 2 6 0;
#X connect 3 3 7 0;
#X connect 3 4 8 0;
#X connect 4 0 1 0;
#X connect 5 0 1 0;
#X connect 6 0 1 0;
#X connect 7 0 1 0;
#X connect 8 0 1 0;
