#N canvas 1 79 1585 820 10;
#X obj 413 83 inlet bang;
#X obj 419 329 outlet;
#X obj 413 161 random 5;
#X obj 401 192 select 0 1 2 3 4;
#X msg 306 235 -3 -2 -1 -1;
#X msg 388 238 -2 -2 -1 -2;
#X msg 472 237 -4 1 -3 -1;
#X msg 550 235 -5 2 -4 0;
#X msg 625 237 -7 4 -2 -2;
#X connect 0 0 2 0;
#X connect 2 0 3 0;
#X connect 3 0 4 0;
#X connect 3 1 5 0;
#X connect 3 2 6 0;
#X connect 3 3 7 0;
#X connect 3 4 8 0;
#X connect 4 0 1 0;
#X connect 5 0 1 0;
#X connect 6 0 1 0;
#X connect 7 0 1 0;
#X connect 8 0 1 0;
