#N canvas 0 79 1600 821 10;
#X obj 305 70 inlet bang;
#X obj 311 316 outlet;
#X obj 305 148 random 5;
#X obj 293 179 select 0 1 2 3 4;
#X msg 198 222 7 -3 -2 0;
#X msg 272 221 -2 -2 -2 -1;
#X msg 364 224 2 2 3 0;
#X msg 431 222 -2 -2 -3 0;
#X msg 517 224 4 -1 -1 -2;
#X connect 0 0 2 0;
#X connect 2 0 3 0;
#X connect 3 0 4 0;
#X connect 3 1 5 0;
#X connect 3 2 6 0;
#X connect 3 3 7 0;
#X connect 3 4 8 0;
#X connect 4 0 1 0;
#X connect 5 0 1 0;
#X connect 6 0 1 0;
#X connect 7 0 1 0;
#X connect 8 0 1 0;
