#N canvas 3 89 1585 808 10;
#N canvas 188 105 888 820 meloGenerator 0;
#X obj 156 707 outlet note_list;
#X obj 305 709 outlet dur_list;
#X obj 460 710 outlet velo_list;
#X obj 246 435 inlet scale;
#X obj 42 60 inlet generate;
#N canvas 0 79 1600 821 SPEAC_generator 0;
#X obj 100 13 inlet generate;
#N canvas 0 79 1600 821 nextSym 0;
#N canvas 50 133 450 300 Snext 0;
#X obj 123 100 random 3;
#X obj 125 137 select 0 1 2;
#X msg 125 177 P;
#X msg 159 176 E;
#X msg 190 177 A;
#X obj 123 58 t b;
#X obj 122 21 inlet synIn;
#X obj 128 256 outlet symOut;
#X connect 0 0 1 0;
#X connect 1 0 2 0;
#X connect 1 1 3 0;
#X connect 1 2 4 0;
#X connect 2 0 7 0;
#X connect 3 0 7 0;
#X connect 4 0 7 0;
#X connect 5 0 0 0;
#X connect 6 0 5 0;
#X restore 54 88 pd Snext;
#N canvas 406 223 450 300 Pnext 0;
#X obj 125 137 select 0 1 2;
#X obj 123 58 t b;
#X obj 122 21 inlet synIn;
#X obj 128 256 outlet symOut;
#X obj 123 100 random 2;
#X msg 125 175 S;
#X msg 159 175 A;
#X msg 194 175 C;
#X connect 0 0 5 0;
#X connect 0 1 6 0;
#X connect 0 2 7 0;
#X connect 1 0 4 0;
#X connect 2 0 1 0;
#X connect 4 0 0 0;
#X connect 5 0 3 0;
#X connect 6 0 3 0;
#X connect 7 0 3 0;
#X restore 121 86 pd Pnext;
#N canvas 16 158 450 300 Enext 0;
#X obj 123 58 t b;
#X obj 122 21 inlet synIn;
#X obj 128 256 outlet symOut;
#X msg 184 177 C;
#X msg 154 177 A;
#X obj 125 137 select 0 1 2 3;
#X obj 124 100 random 4;
#X msg 215 177 P;
#X msg 125 177 S;
#X connect 0 0 6 0;
#X connect 1 0 0 0;
#X connect 3 0 2 0;
#X connect 4 0 2 0;
#X connect 5 0 8 0;
#X connect 5 1 4 0;
#X connect 5 2 3 0;
#X connect 5 3 7 0;
#X connect 6 0 5 0;
#X connect 7 0 2 0;
#X connect 8 0 2 0;
#X restore 191 88 pd Enext;
#N canvas 56 514 450 300 Anext 0;
#X obj 125 137 select 0 1 2;
#X obj 123 58 t b;
#X obj 122 21 inlet synIn;
#X obj 128 256 outlet symOut;
#X msg 161 177 C;
#X obj 123 100 random 2;
#X msg 125 178 E;
#X connect 0 0 6 0;
#X connect 0 1 4 0;
#X connect 1 0 5 0;
#X connect 2 0 1 0;
#X connect 4 0 3 0;
#X connect 5 0 0 0;
#X connect 6 0 3 0;
#X restore 257 89 pd Anext;
#N canvas 198 241 450 300 Cnext 0;
#X obj 128 23 inlet synIn;
#X obj 128 256 outlet symOut;
#X obj 149 52 t b;
#X msg 127 190 S;
#X msg 252 190 F;
#X msg 156 190 P;
#X msg 186 190 E;
#X msg 218 190 A;
#X obj 55 31 bng 15 250 50 0 empty empty empty 17 7 0 10 -262144 -1
-1;
#X obj 149 108 random 8;
#X obj 149 148 select 0 1 2 3 4 5 6 7;
#X connect 0 0 2 0;
#X connect 2 0 9 0;
#X connect 3 0 1 0;
#X connect 4 0 1 0;
#X connect 5 0 1 0;
#X connect 6 0 1 0;
#X connect 7 0 1 0;
#X connect 8 0 2 0;
#X connect 9 0 10 0;
#X connect 10 0 3 0;
#X connect 10 1 5 0;
#X connect 10 2 6 0;
#X connect 10 3 7 0;
#X connect 10 4 4 0;
#X connect 10 5 4 0;
#X connect 10 6 4 0;
#X connect 10 7 4 0;
#X connect 10 8 4 0;
#X restore 332 90 pd Cnext;
#X obj 166 269 outlet symOut;
#X obj 149 9 inlet symIn;
#X obj 166 212 symbol;
#X obj 288 264 s SPEAC_generator_finish;
#X obj 326 203 t b;
#X obj 284 166 select F, f 9;
#X obj 149 44 select S P E A C;
#X obj 284 133 symbol;
#X obj 263 224 symbol;
#X obj 342 240 print FINISHED;
#X text 375 -38 comment;
#X text 66 309 La phrase commencera toujours par un S. Les symboles
suivants sont determines selont un processus de markov. les boites
pd Snext \, Pnext ... determinent le symbole suivant en fonction du
precedent.;
#X connect 0 0 7 0;
#X connect 1 0 7 0;
#X connect 2 0 7 0;
#X connect 3 0 7 0;
#X connect 4 0 12 0;
#X connect 6 0 11 0;
#X connect 7 0 5 0;
#X connect 9 0 8 0;
#X connect 9 0 14 0;
#X connect 10 0 9 0;
#X connect 10 1 13 0;
#X connect 11 0 0 0;
#X connect 11 1 1 0;
#X connect 11 2 2 0;
#X connect 11 3 3 0;
#X connect 11 4 4 0;
#X connect 12 0 10 0;
#X connect 13 0 5 0;
#X restore 50 236 pd nextSym;
#X obj 129 192 t b symbol symbol;
#X msg 100 117 symbol S;
#X obj 301 460 outlet finished;
#X obj 307 227 r SPEAC_generator_finish;
#X obj 171 373 list-extend;
#X obj 252 288 t b b;
#X obj 170 404 list-extend;
#X obj 130 460 outlet speac-list;
#X obj 218 434 print blabla;
#X text 119 236 <-texte;
#X connect 0 0 3 0;
#X connect 1 0 2 0;
#X connect 2 1 1 0;
#X connect 2 2 6 0;
#X connect 3 0 2 0;
#X connect 5 0 4 0;
#X connect 5 0 7 0;
#X connect 6 0 8 1;
#X connect 7 0 6 1;
#X connect 7 1 8 0;
#X connect 8 0 9 0;
#X connect 8 0 10 0;
#X restore 164 167 pd SPEAC_generator;
#X obj 161 105 bng 15 250 50 0 empty empty empty 17 7 0 10 -262144
-1 -1;
#X obj 31 708 outlet sym-list;
#N canvas 623 207 450 418 durGenerator 0;
#X obj 129 22 inlet speac-list;
#X obj 139 379 outlet dur-list;
#X obj 139 66 list-len;
#X obj 141 193 until;
#X obj 139 340 last-x;
#X obj 141 163 t f f;
#X obj 239 21 inlet sym-length;
#X msg 239 127 set \$1;
#X obj 139 309 / 1;
#X obj 343 20 inlet nbSteps;
#X obj 154 104 * 1;
#X msg 139 260 2520;
#X obj 344 59 t f f f;
#X obj 157 131 t f f;
#X connect 0 0 2 0;
#X connect 2 0 10 0;
#X connect 3 0 11 0;
#X connect 4 0 1 0;
#X connect 5 0 3 0;
#X connect 6 0 7 0;
#X connect 7 0 11 0;
#X connect 8 0 4 0;
#X connect 9 0 12 0;
#X connect 10 0 13 0;
#X connect 11 0 8 0;
#X connect 12 0 8 1;
#X connect 12 1 10 1;
#X connect 13 0 5 0;
#X connect 13 1 4 1;
#X restore 270 333 pd durGenerator;
#X obj 164 292 t l l l;
#X obj 567 246 r \$0-init-sym-length;
#X msg 311 239 2520;
#N canvas 3 89 1585 808 generateMeloFromSym 1;
#X obj 1272 96 inlet gamme;
#X obj 318 339 select S P E A C;
#X obj 296 202 symbol;
#X obj 296 234 s last-symbol;
#X obj 283 83 iter;
#X obj 283 11 inlet sym-list;
#X obj 1377 96 inlet sym-length;
#X obj 1377 165 s \$0-sym-length;
#X obj 575 23 inlet dur-list;
#X obj 512 133 list-extend;
#X obj 512 184 car;
#X obj 545 184 cdr;
#X obj 512 208 +;
#X obj 550 208 f 0;
#X obj 423 306 until;
#X obj 512 282 sel 0;
#X obj 512 252 mod 1000;
#X msg 622 201 0;
#X obj 512 230 t f b;
#X obj 627 293 f 0;
#X obj 659 293 +;
#X msg 659 263 1;
#X obj 551 326 f;
#X obj 512 304 t b b b;
#X obj 551 350 s \$0-nbNotes;
#X obj 283 172 t s s b;
#X obj 557 230 r \$0-sym-length;
#X obj 1272 166 s \$0-gamme;
#X text 595 45 fait la somme des durees jusqua obtenir la duree d'un
symbole pour trouver le nombre de notes a generer dans la phrase.;
#X obj 283 255 t s b;
#X obj 342 67 list-len;
#X obj 343 94 s \$0-nb-sym;
#X obj 767 794 outlet melo-list;
#X obj 767 768 list-extend;
#X obj 83 104 s \$0-done;
#X obj 650 677 r \$0-done;
#X obj 737 668 t b l;
#X obj 764 705 list-extend;
#X obj 650 712 t b b b;
#X obj 995 131 r \$0-last-note;
#X obj 1039 199 -;
#X obj 1113 131 r \$0-first-note;
#X obj 1039 243 s \$0-distance;
#X obj 512 71 list-extend;
#X obj 423 258 t b b;
#X obj 173 337 s \$0-last-symbol;
#X obj 283 289 t s s;
#X obj 148 443 r \$0-nbNotes;
#X obj 167 462 r \$0-gamme;
#X obj 204 507 r \$0-last-note;
#X obj 185 668 s \$0-last-note;
#X obj 185 482 r \$0-last-symbol;
#N canvas 1 79 1585 820 tempo_generate_S 0;
#X obj 69 40 inlet generate;
#X obj 69 748 outlet note_list;
#X obj 263 44 inlet scale;
#X obj 165 41 inlet nbNotes;
#X obj 468 43 inlet last-note;
#X obj 357 43 inlet last-sym;
#X obj 182 748 outlet last-note;
#X obj 354 140 symbol;
#X obj 494 139 f;
#X obj 260 141 list-extend;
#X obj 260 164 s \$0-scale;
#X obj 301 593 r \$0-scale;
#X obj 191 78 s \$0-nb-notes;
#N canvas 1 79 1585 820 append-send 0;
#X obj 245 83 inlet stream;
#X obj 200 211 list-extend;
#X obj 232 141 t b f;
#X obj 229 336 list-extend;
#X obj 229 391 outlet list;
#X obj 101 87 inlet send;
#X obj 124 162 t b b b;
#X obj 632 395 outlet lastnote;
#X connect 0 0 2 0;
#X connect 1 0 3 1;
#X connect 2 1 1 0;
#X connect 3 0 4 0;
#X connect 5 0 6 0;
#X connect 6 0 3 1;
#X connect 6 1 3 0;
#X connect 6 2 1 1;
#X restore 69 665 pd append-send;
#X obj 280 304 select 1 2 3 4 5 6 7 8;
#X obj 408 359 five;
#X obj 69 686 t l l;
#X obj 109 714 last-elem;
#X obj 100 94 t b b b b b b;
#X obj 95 351 random 2;
#X obj 95 385 select 0 1;
#X msg 95 459 0;
#X msg 123 459 4;
#X obj 153 511 + 0;
#X obj 300 392 P-three;
#X obj 260 393 P-two;
#X obj 482 187 s \$0-last-note;
#X obj 193 564 r \$0-last-note;
#X obj 276 196 symbol;
#X obj 515 326 select 1 2 3 4 5 6 7 8;
#X obj 665 364 five;
#X obj 557 397 P-three;
#X obj 517 398 P-two;
#X obj 757 312 select 1 2 3 4 5 6 7 8;
#X obj 885 367 five;
#X obj 777 400 P-three;
#X obj 737 401 P-two;
#X obj 699 401 P-one;
#X obj 304 280 f;
#X obj 319 257 r \$0-nb-notes;
#X obj 454 293 f;
#X obj 469 258 r \$0-nb-notes;
#X obj 715 266 f;
#X obj 730 231 r \$0-nb-notes;
#X obj 220 393 P-one;
#X obj 472 398 P-one;
#X obj 331 186 select P E C;
#X obj 291 748 outlet new_harmonic_position;
#X obj 641 43 inlet harmonic_position;
#X obj 346 509 list-accum;
#X obj 256 469 t l l;
#X obj 406 571 +;
#X obj 432 509 r \$0-harmonic_position;
#X obj 641 78 s \$0-harmonic_position;
#X obj 571 43 inlet base;
#X obj 571 148 s \$0-base;
#X obj 238 585 r \$0-base;
#X obj 168 604 f;
#X obj 178 671 s \$0-last-note;
#X obj 200 605 f;
#X obj 238 617 list-extend;
#X obj 256 504 iter;
#X obj 153 540 t b b f b b;
#X obj 556 121 f;
#X obj 152 642 pitch-class2;
#X obj 353 392 pS-four;
#X obj 610 397 eS-four;
#X obj 829 401 cS-four;
#X obj 410 220 t b;
#X text 640 447 Presentement le seul decoupage de symbole est en 4
pas. Il faudra definir tous les autres avant de pouvoir utiliser une
autre signature.;
#X connect 0 0 18 0;
#X connect 2 0 9 1;
#X connect 3 0 12 0;
#X connect 4 0 8 1;
#X connect 5 0 7 1;
#X connect 7 0 28 1;
#X connect 8 0 26 0;
#X connect 9 0 10 0;
#X connect 11 0 60 1;
#X connect 13 0 16 0;
#X connect 14 0 44 0;
#X connect 14 1 25 0;
#X connect 14 2 24 0;
#X connect 14 3 65 0;
#X connect 14 5 15 0;
#X connect 16 0 1 0;
#X connect 16 1 17 0;
#X connect 17 0 6 0;
#X connect 18 0 13 0;
#X connect 18 1 28 0;
#X connect 18 2 9 0;
#X connect 18 3 7 0;
#X connect 18 4 8 0;
#X connect 18 5 63 0;
#X connect 19 0 20 0;
#X connect 20 0 21 0;
#X connect 20 1 22 0;
#X connect 21 0 23 1;
#X connect 22 0 23 1;
#X connect 23 0 62 0;
#X connect 24 0 50 0;
#X connect 25 0 50 0;
#X connect 27 0 57 1;
#X connect 28 0 46 0;
#X connect 29 0 45 0;
#X connect 29 1 32 0;
#X connect 29 2 31 0;
#X connect 29 3 66 0;
#X connect 29 5 30 0;
#X connect 31 0 50 0;
#X connect 32 0 50 0;
#X connect 33 0 37 0;
#X connect 33 1 36 0;
#X connect 33 2 35 0;
#X connect 33 3 67 0;
#X connect 33 5 34 0;
#X connect 35 0 50 0;
#X connect 36 0 50 0;
#X connect 37 0 50 0;
#X connect 38 0 14 0;
#X connect 39 0 38 1;
#X connect 40 0 29 0;
#X connect 41 0 40 1;
#X connect 42 0 33 0;
#X connect 43 0 42 1;
#X connect 44 0 50 0;
#X connect 45 0 50 0;
#X connect 46 0 38 0;
#X connect 46 1 40 0;
#X connect 46 2 42 0;
#X connect 46 3 68 0;
#X connect 48 0 53 0;
#X connect 49 0 51 0;
#X connect 50 0 61 0;
#X connect 50 1 49 0;
#X connect 51 0 47 0;
#X connect 52 0 51 1;
#X connect 54 0 63 1;
#X connect 56 0 59 1;
#X connect 57 0 64 1;
#X connect 59 0 64 3;
#X connect 60 0 64 4;
#X connect 61 0 23 0;
#X connect 62 0 64 0;
#X connect 62 1 57 0;
#X connect 62 2 64 2;
#X connect 62 3 59 0;
#X connect 62 4 60 0;
#X connect 63 0 55 0;
#X connect 64 0 13 1;
#X connect 64 0 58 0;
#X connect 65 0 50 0;
#X connect 66 0 50 0;
#X connect 67 0 50 0;
#X connect 68 0 38 0;
#X restore 130 592 pd tempo_generate_S;
#X obj 241 643 s \$0-harmonic-position;
#X obj 241 551 r \$0-harmonic-position;
#X obj 120 170 s \$0-harmonic-position;
#X obj 256 54 t b b l;
#X msg 199 116 0;
#X obj 222 528 r \$0-base;
#X obj 1298 273 loadbang;
#X obj 1298 352 s \$0-base;
#X msg 1298 301 60;
#X obj 1374 273 loadbang;
#X msg 1374 301 60;
#X obj 1374 351 s \$0-last-note;
#X obj 468 395 r \$0-nbNotes;
#X obj 487 416 r \$0-gamme;
#X obj 524 465 r \$0-last-note;
#X obj 505 626 s \$0-last-note;
#X obj 505 438 r \$0-last-symbol;
#X obj 561 601 s \$0-harmonic-position;
#X obj 561 518 r \$0-harmonic-position;
#X obj 542 490 r \$0-base;
#N canvas 1 79 1585 820 tempo_generate_P 0;
#X obj 69 40 inlet generate;
#X obj 69 748 outlet note_list;
#X obj 263 44 inlet scale;
#X obj 165 41 inlet nbNotes;
#X obj 468 43 inlet last-note;
#X obj 357 43 inlet last-sym;
#X obj 182 748 outlet last-note;
#X obj 354 140 symbol;
#X obj 494 139 f;
#X obj 260 141 list-extend;
#X obj 260 164 s \$0-scale;
#X obj 301 593 r \$0-scale;
#X obj 191 78 s \$0-nb-notes;
#N canvas 1 79 1585 820 append-send 0;
#X obj 245 83 inlet stream;
#X obj 200 211 list-extend;
#X obj 232 141 t b f;
#X obj 229 336 list-extend;
#X obj 229 391 outlet list;
#X obj 101 87 inlet send;
#X obj 124 162 t b b b;
#X obj 632 395 outlet lastnote;
#X connect 0 0 2 0;
#X connect 1 0 3 1;
#X connect 2 1 1 0;
#X connect 3 0 4 0;
#X connect 5 0 6 0;
#X connect 6 0 3 1;
#X connect 6 1 3 0;
#X connect 6 2 1 1;
#X restore 69 665 pd append-send;
#X obj 303 327 select 1 2 3 4 5 6 7 8;
#X obj 431 382 five;
#X obj 69 686 t l l;
#X obj 109 714 last-elem;
#X obj 100 94 t b b b b b b;
#X obj 95 351 random 2;
#X obj 95 385 select 0 1;
#X msg 95 459 0;
#X msg 123 459 4;
#X obj 153 511 + 0;
#X obj 335 411 P-three;
#X obj 295 412 P-two;
#X obj 482 187 s \$0-last-note;
#X obj 193 564 r \$0-last-note;
#X obj 276 196 symbol;
#X obj 538 349 select 1 2 3 4 5 6 7 8;
#X obj 688 387 five;
#X obj 580 420 P-three;
#X obj 540 421 P-two;
#X obj 327 303 f;
#X obj 342 267 r \$0-nb-notes;
#X obj 477 316 f;
#X obj 492 281 r \$0-nb-notes;
#X obj 243 416 P-one;
#X obj 495 421 P-one;
#X obj 291 748 outlet new_harmonic_position;
#X obj 641 43 inlet harmonic_position;
#X obj 350 531 list-accum;
#X obj 342 496 t l l;
#X obj 406 571 +;
#X obj 438 530 r \$0-harmonic_position;
#X obj 641 78 s \$0-harmonic_position;
#X obj 327 240 t b;
#X obj 571 43 inlet base;
#X obj 571 148 s \$0-base;
#X obj 238 585 r \$0-base;
#X obj 168 604 f;
#X obj 178 671 s \$0-last-note;
#X obj 200 605 f;
#X obj 238 617 list-extend;
#X obj 256 525 iter;
#X obj 153 540 t b b f b b;
#X obj 556 121 f;
#X obj 152 642 pitch-class2;
#X obj 633 420 eP-four;
#X obj 388 411 sP-four;
#X obj 772 333 select 1 2 3 4 5 6 7 8;
#X obj 900 388 five;
#X obj 792 421 P-three;
#X obj 752 422 P-two;
#X obj 714 422 P-one;
#X obj 734 288 f;
#X obj 745 252 r \$0-nb-notes;
#X obj 844 422 cP-four;
#X obj 383 200 select S E C;
#X connect 0 0 18 0;
#X connect 2 0 9 1;
#X connect 3 0 12 0;
#X connect 4 0 8 1;
#X connect 5 0 7 1;
#X connect 7 0 28 1;
#X connect 8 0 26 0;
#X connect 9 0 10 0;
#X connect 11 0 53 1;
#X connect 13 0 16 0;
#X connect 14 0 37 0;
#X connect 14 1 25 0;
#X connect 14 2 24 0;
#X connect 14 3 59 0;
#X connect 14 5 15 0;
#X connect 16 0 1 0;
#X connect 16 1 17 0;
#X connect 17 0 6 0;
#X connect 18 0 13 0;
#X connect 18 1 28 0;
#X connect 18 2 9 0;
#X connect 18 3 7 0;
#X connect 18 4 8 0;
#X connect 18 5 56 0;
#X connect 19 0 20 0;
#X connect 20 0 21 0;
#X connect 20 1 22 0;
#X connect 21 0 23 1;
#X connect 22 0 23 1;
#X connect 23 0 55 0;
#X connect 24 0 42 0;
#X connect 25 0 42 0;
#X connect 27 0 50 1;
#X connect 28 0 68 0;
#X connect 29 0 38 0;
#X connect 29 1 32 0;
#X connect 29 2 31 0;
#X connect 29 3 58 0;
#X connect 29 5 30 0;
#X connect 31 0 42 0;
#X connect 32 0 42 0;
#X connect 33 0 14 0;
#X connect 34 0 33 1;
#X connect 35 0 29 0;
#X connect 36 0 35 1;
#X connect 37 0 42 0;
#X connect 38 0 42 0;
#X connect 40 0 45 0;
#X connect 41 0 43 0;
#X connect 42 0 54 0;
#X connect 42 1 41 0;
#X connect 43 0 39 0;
#X connect 44 0 43 1;
#X connect 46 0 33 0;
#X connect 47 0 56 1;
#X connect 49 0 52 1;
#X connect 50 0 57 1;
#X connect 52 0 57 3;
#X connect 53 0 57 4;
#X connect 54 0 23 0;
#X connect 55 0 57 0;
#X connect 55 1 50 0;
#X connect 55 2 57 2;
#X connect 55 3 52 0;
#X connect 55 4 53 0;
#X connect 56 0 48 0;
#X connect 57 0 13 1;
#X connect 57 0 51 0;
#X connect 58 0 42 0;
#X connect 59 0 42 0;
#X connect 60 0 64 0;
#X connect 60 1 63 0;
#X connect 60 2 62 0;
#X connect 60 3 67 0;
#X connect 60 5 61 0;
#X connect 65 0 60 0;
#X connect 66 0 65 1;
#X connect 67 0 42 0;
#X connect 68 0 46 0;
#X connect 68 1 35 0;
#X connect 68 2 65 0;
#X restore 450 550 pd tempo_generate_P;
#X obj 336 33 t l l b;
#X obj 418 82 s \$0-new-gen;
#X obj 1359 242 r \$0-new-gen;
#X obj 751 392 r \$0-nbNotes;
#X obj 770 413 r \$0-gamme;
#X obj 807 462 r \$0-last-note;
#X obj 788 623 s \$0-last-note;
#X obj 788 435 r \$0-last-symbol;
#X obj 844 598 s \$0-harmonic-position;
#X obj 844 515 r \$0-harmonic-position;
#X obj 825 487 r \$0-base;
#N canvas 1 79 1585 820 tempo_generate_E 0;
#X obj 69 40 inlet generate;
#X obj 69 748 outlet note_list;
#X obj 263 44 inlet scale;
#X obj 165 41 inlet nbNotes;
#X obj 468 43 inlet last-note;
#X obj 357 43 inlet last-sym;
#X obj 182 748 outlet last-note;
#X obj 354 140 symbol;
#X obj 494 139 f;
#X obj 260 141 list-extend;
#X obj 260 164 s \$0-scale;
#X obj 301 593 r \$0-scale;
#X obj 191 78 s \$0-nb-notes;
#N canvas 1 79 1585 820 append-send 0;
#X obj 245 83 inlet stream;
#X obj 200 211 list-extend;
#X obj 232 141 t b f;
#X obj 229 336 list-extend;
#X obj 229 391 outlet list;
#X obj 101 87 inlet send;
#X obj 124 162 t b b b;
#X obj 632 395 outlet lastnote;
#X connect 0 0 2 0;
#X connect 1 0 3 1;
#X connect 2 1 1 0;
#X connect 3 0 4 0;
#X connect 5 0 6 0;
#X connect 6 0 3 1;
#X connect 6 1 3 0;
#X connect 6 2 1 1;
#X restore 69 665 pd append-send;
#X obj 303 327 select 1 2 3 4 5 6 7 8;
#X obj 431 382 five;
#X obj 69 686 t l l;
#X obj 109 714 last-elem;
#X obj 100 94 t b b b b b b;
#X obj 95 351 random 2;
#X obj 95 385 select 0 1;
#X msg 95 459 0;
#X msg 123 459 4;
#X obj 153 511 + 0;
#X obj 335 411 P-three;
#X obj 295 412 P-two;
#X obj 482 187 s \$0-last-note;
#X obj 193 564 r \$0-last-note;
#X obj 276 196 symbol;
#X obj 538 349 select 1 2 3 4 5 6 7 8;
#X obj 688 387 five;
#X obj 580 420 P-three;
#X obj 540 421 P-two;
#X obj 327 303 f;
#X obj 342 267 r \$0-nb-notes;
#X obj 477 316 f;
#X obj 492 281 r \$0-nb-notes;
#X obj 250 411 P-one;
#X obj 495 421 P-one;
#X obj 291 748 outlet new_harmonic_position;
#X obj 641 43 inlet harmonic_position;
#X obj 350 531 list-accum;
#X obj 342 496 t l l;
#X obj 406 571 +;
#X obj 438 530 r \$0-harmonic_position;
#X obj 641 78 s \$0-harmonic_position;
#X obj 327 240 t b;
#X obj 571 43 inlet base;
#X obj 571 148 s \$0-base;
#X obj 238 585 r \$0-base;
#X obj 168 604 f;
#X obj 178 671 s \$0-last-note;
#X obj 200 605 f;
#X obj 238 617 list-extend;
#X obj 256 525 iter;
#X obj 153 540 t b b f b b;
#X obj 556 121 f;
#X obj 152 642 pitch-class2;
#X obj 772 333 select 1 2 3 4 5 6 7 8;
#X obj 900 388 five;
#X obj 792 421 P-three;
#X obj 752 422 P-two;
#X obj 714 422 P-one;
#X obj 734 288 f;
#X obj 745 252 r \$0-nb-notes;
#X obj 388 411 sE-four;
#X obj 383 205 select S A C;
#X obj 633 420 aE-four;
#X obj 845 423 cE-four;
#X connect 0 0 18 0;
#X connect 2 0 9 1;
#X connect 3 0 12 0;
#X connect 4 0 8 1;
#X connect 5 0 7 1;
#X connect 7 0 28 1;
#X connect 8 0 26 0;
#X connect 9 0 10 0;
#X connect 11 0 53 1;
#X connect 13 0 16 0;
#X connect 14 0 37 0;
#X connect 14 1 25 0;
#X connect 14 2 24 0;
#X connect 14 3 65 0;
#X connect 14 4 15 0;
#X connect 16 0 1 0;
#X connect 16 1 17 0;
#X connect 17 0 6 0;
#X connect 18 0 13 0;
#X connect 18 1 28 0;
#X connect 18 2 9 0;
#X connect 18 3 7 0;
#X connect 18 4 8 0;
#X connect 18 5 56 0;
#X connect 19 0 20 0;
#X connect 20 0 21 0;
#X connect 20 1 22 0;
#X connect 21 0 23 1;
#X connect 22 0 23 1;
#X connect 23 0 55 0;
#X connect 24 0 42 0;
#X connect 25 0 42 0;
#X connect 27 0 50 1;
#X connect 28 0 66 0;
#X connect 29 0 38 0;
#X connect 29 1 32 0;
#X connect 29 2 31 0;
#X connect 29 3 67 0;
#X connect 29 4 30 0;
#X connect 31 0 42 0;
#X connect 32 0 42 0;
#X connect 33 0 14 0;
#X connect 34 0 33 1;
#X connect 35 0 29 0;
#X connect 36 0 35 1;
#X connect 37 0 42 0;
#X connect 38 0 42 0;
#X connect 40 0 45 0;
#X connect 41 0 43 0;
#X connect 42 0 54 0;
#X connect 42 1 41 0;
#X connect 43 0 39 0;
#X connect 44 0 43 1;
#X connect 46 0 33 0;
#X connect 47 0 56 1;
#X connect 49 0 52 1;
#X connect 50 0 57 1;
#X connect 52 0 57 3;
#X connect 53 0 57 4;
#X connect 54 0 23 0;
#X connect 55 0 57 0;
#X connect 55 1 50 0;
#X connect 55 2 57 2;
#X connect 55 3 52 0;
#X connect 55 4 53 0;
#X connect 56 0 48 0;
#X connect 57 0 13 1;
#X connect 57 0 51 0;
#X connect 58 0 62 0;
#X connect 58 1 61 0;
#X connect 58 2 60 0;
#X connect 58 3 68 0;
#X connect 58 4 59 0;
#X connect 63 0 58 0;
#X connect 64 0 63 1;
#X connect 65 0 42 0;
#X connect 66 0 46 0;
#X connect 66 1 35 0;
#X connect 66 2 63 0;
#X connect 67 0 42 0;
#X connect 68 0 42 0;
#X restore 733 547 pd tempo_generate_E;
#X obj 1015 401 r \$0-nbNotes;
#X obj 1034 422 r \$0-gamme;
#X obj 1071 471 r \$0-last-note;
#X obj 1052 632 s \$0-last-note;
#X obj 1052 444 r \$0-last-symbol;
#X obj 1108 607 s \$0-harmonic-position;
#X obj 1108 524 r \$0-harmonic-position;
#X obj 1089 496 r \$0-base;
#N canvas 1 79 1585 820 tempo_generate_A 0;
#X obj 69 40 inlet generate;
#X obj 69 748 outlet note_list;
#X obj 263 44 inlet scale;
#X obj 165 41 inlet nbNotes;
#X obj 468 43 inlet last-note;
#X obj 357 43 inlet last-sym;
#X obj 182 748 outlet last-note;
#X obj 354 140 symbol;
#X obj 494 139 f;
#X obj 260 141 list-extend;
#X obj 260 164 s \$0-scale;
#X obj 301 593 r \$0-scale;
#X obj 191 78 s \$0-nb-notes;
#N canvas 1 79 1585 820 append-send 0;
#X obj 245 83 inlet stream;
#X obj 200 211 list-extend;
#X obj 232 141 t b f;
#X obj 229 336 list-extend;
#X obj 229 391 outlet list;
#X obj 101 87 inlet send;
#X obj 124 162 t b b b;
#X obj 632 395 outlet lastnote;
#X connect 0 0 2 0;
#X connect 1 0 3 1;
#X connect 2 1 1 0;
#X connect 3 0 4 0;
#X connect 5 0 6 0;
#X connect 6 0 3 1;
#X connect 6 1 3 0;
#X connect 6 2 1 1;
#X restore 69 665 pd append-send;
#X obj 303 327 select 1 2 3 4 5 6 7 8;
#X obj 431 382 five;
#X obj 69 686 t l l;
#X obj 109 714 last-elem;
#X obj 100 94 t b b b b b b;
#X obj 153 511 + 0;
#X obj 335 411 P-three;
#X obj 295 412 P-two;
#X obj 482 187 s \$0-last-note;
#X obj 193 564 r \$0-last-note;
#X obj 276 196 symbol;
#X obj 506 345 select 1 2 3 4 5 6 7 8;
#X obj 580 420 P-three;
#X obj 540 421 P-two;
#X obj 327 303 f;
#X obj 342 267 r \$0-nb-notes;
#X obj 477 316 f;
#X obj 492 281 r \$0-nb-notes;
#X obj 250 411 P-one;
#X obj 495 421 P-one;
#X obj 291 748 outlet new_harmonic_position;
#X obj 641 43 inlet harmonic_position;
#X obj 350 531 list-accum;
#X obj 342 496 t l l;
#X obj 406 571 +;
#X obj 438 530 r \$0-harmonic_position;
#X obj 641 78 s \$0-harmonic_position;
#X obj 327 240 t b;
#X obj 571 43 inlet base;
#X obj 571 148 s \$0-base;
#X obj 238 585 r \$0-base;
#X obj 168 604 f;
#X obj 178 671 s \$0-last-note;
#X obj 200 605 f;
#X obj 238 617 list-extend;
#X obj 256 525 iter;
#X obj 153 540 t b b f b b;
#X obj 556 121 f;
#X obj 152 642 pitch-class2;
#X obj 772 333 select 1 2 3 4 5 6 7 8;
#X obj 900 388 five;
#X obj 792 421 P-three;
#X obj 752 422 P-two;
#X obj 714 422 P-one;
#X obj 734 288 f;
#X obj 745 252 r \$0-nb-notes;
#X obj 383 205 select S P E C;
#X obj 989 336 select 1 2 3 4 5 6 7 8;
#X obj 1117 391 five;
#X obj 1009 424 P-three;
#X obj 969 425 P-two;
#X obj 931 425 P-one;
#X obj 951 291 f;
#X obj 962 255 r \$0-nb-notes;
#X obj 388 412 sA-four;
#X obj 633 420 pA-four;
#X obj 845 423 eA-four;
#X obj 1062 426 cA-four;
#X connect 0 0 18 0;
#X connect 2 0 9 1;
#X connect 3 0 12 0;
#X connect 4 0 8 1;
#X connect 5 0 7 1;
#X connect 7 0 24 1;
#X connect 8 0 22 0;
#X connect 9 0 10 0;
#X connect 11 0 48 1;
#X connect 13 0 16 0;
#X connect 14 0 32 0;
#X connect 14 1 21 0;
#X connect 14 2 20 0;
#X connect 14 3 68 0;
#X connect 14 4 15 0;
#X connect 16 0 1 0;
#X connect 16 1 17 0;
#X connect 17 0 6 0;
#X connect 18 0 13 0;
#X connect 18 1 24 0;
#X connect 18 2 9 0;
#X connect 18 3 7 0;
#X connect 18 4 8 0;
#X connect 18 5 51 0;
#X connect 19 0 50 0;
#X connect 20 0 37 0;
#X connect 21 0 37 0;
#X connect 23 0 45 1;
#X connect 24 0 60 0;
#X connect 25 0 33 0;
#X connect 25 1 27 0;
#X connect 25 2 26 0;
#X connect 25 3 69 0;
#X connect 26 0 37 0;
#X connect 27 0 37 0;
#X connect 28 0 14 0;
#X connect 29 0 28 1;
#X connect 30 0 25 0;
#X connect 31 0 30 1;
#X connect 32 0 37 0;
#X connect 33 0 37 0;
#X connect 35 0 40 0;
#X connect 36 0 38 0;
#X connect 37 0 49 0;
#X connect 37 1 36 0;
#X connect 38 0 34 0;
#X connect 39 0 38 1;
#X connect 41 0 28 0;
#X connect 42 0 51 1;
#X connect 44 0 47 1;
#X connect 45 0 52 1;
#X connect 47 0 52 3;
#X connect 48 0 52 4;
#X connect 49 0 19 0;
#X connect 50 0 52 0;
#X connect 50 1 45 0;
#X connect 50 2 52 2;
#X connect 50 3 47 0;
#X connect 50 4 48 0;
#X connect 51 0 43 0;
#X connect 52 0 13 1;
#X connect 52 0 46 0;
#X connect 53 0 57 0;
#X connect 53 1 56 0;
#X connect 53 2 55 0;
#X connect 53 3 70 0;
#X connect 53 4 54 0;
#X connect 58 0 53 0;
#X connect 59 0 58 1;
#X connect 60 0 41 0;
#X connect 60 1 30 0;
#X connect 60 2 58 0;
#X connect 60 3 66 0;
#X connect 61 0 65 0;
#X connect 61 1 64 0;
#X connect 61 2 63 0;
#X connect 61 3 71 0;
#X connect 61 4 62 0;
#X connect 66 0 61 0;
#X connect 67 0 66 1;
#X connect 68 0 37 0;
#X connect 69 0 37 0;
#X connect 70 0 37 0;
#X connect 71 0 37 0;
#X restore 997 556 pd tempo_generate_A;
#X obj 1276 415 r \$0-nbNotes;
#X obj 1295 436 r \$0-gamme;
#X obj 1332 485 r \$0-last-note;
#X obj 1313 646 s \$0-last-note;
#X obj 1313 458 r \$0-last-symbol;
#X obj 1369 621 s \$0-harmonic-position;
#X obj 1369 538 r \$0-harmonic-position;
#X obj 1350 510 r \$0-base;
#N canvas 1 79 1585 820 tempo_generate_C 0;
#X obj 69 40 inlet generate;
#X obj 69 748 outlet note_list;
#X obj 263 44 inlet scale;
#X obj 165 41 inlet nbNotes;
#X obj 468 43 inlet last-note;
#X obj 357 43 inlet last-sym;
#X obj 182 748 outlet last-note;
#X obj 354 140 symbol;
#X obj 494 139 f;
#X obj 260 141 list-extend;
#X obj 260 164 s \$0-scale;
#X obj 301 593 r \$0-scale;
#X obj 191 78 s \$0-nb-notes;
#N canvas 1 79 1585 820 append-send 0;
#X obj 245 83 inlet stream;
#X obj 200 211 list-extend;
#X obj 232 141 t b f;
#X obj 229 336 list-extend;
#X obj 229 391 outlet list;
#X obj 101 87 inlet send;
#X obj 124 162 t b b b;
#X obj 632 395 outlet lastnote;
#X connect 0 0 2 0;
#X connect 1 0 3 1;
#X connect 2 1 1 0;
#X connect 3 0 4 0;
#X connect 5 0 6 0;
#X connect 6 0 3 1;
#X connect 6 1 3 0;
#X connect 6 2 1 1;
#X restore 69 665 pd append-send;
#X obj 303 327 select 1 2 3 4 5 6 7 8;
#X obj 431 382 five;
#X obj 69 686 t l l;
#X obj 109 714 last-elem;
#X obj 100 94 t b b b b b b;
#X obj 153 511 + 0;
#X obj 335 411 P-three;
#X obj 295 412 P-two;
#X obj 482 187 s \$0-last-note;
#X obj 193 564 r \$0-last-note;
#X obj 276 196 symbol;
#X obj 506 345 select 1 2 3 4 5 6 7 8;
#X obj 580 420 P-three;
#X obj 540 421 P-two;
#X obj 327 303 f;
#X obj 342 267 r \$0-nb-notes;
#X obj 477 316 f;
#X obj 492 281 r \$0-nb-notes;
#X obj 250 411 P-one;
#X obj 495 421 P-one;
#X obj 291 748 outlet new_harmonic_position;
#X obj 641 43 inlet harmonic_position;
#X obj 350 531 list-accum;
#X obj 342 496 t l l;
#X obj 406 571 +;
#X obj 438 530 r \$0-harmonic_position;
#X obj 641 78 s \$0-harmonic_position;
#X obj 327 240 t b;
#X obj 571 43 inlet base;
#X obj 571 148 s \$0-base;
#X obj 238 585 r \$0-base;
#X obj 168 604 f;
#X obj 178 671 s \$0-last-note;
#X obj 200 605 f;
#X obj 238 617 list-extend;
#X obj 256 525 iter;
#X obj 153 540 t b b f b b;
#X obj 556 121 f;
#X obj 152 642 pitch-class2;
#X obj 772 333 select 1 2 3 4 5 6 7 8;
#X obj 900 388 five;
#X obj 792 421 P-three;
#X obj 752 422 P-two;
#X obj 714 422 P-one;
#X obj 734 288 f;
#X obj 745 252 r \$0-nb-notes;
#X obj 380 210 select P E A;
#X obj 388 412 pC-four;
#X obj 633 420 eC-four;
#X obj 844 422 aC-four;
#X connect 0 0 18 0;
#X connect 2 0 9 1;
#X connect 3 0 12 0;
#X connect 4 0 8 1;
#X connect 5 0 7 1;
#X connect 7 0 24 1;
#X connect 8 0 22 0;
#X connect 9 0 10 0;
#X connect 11 0 48 1;
#X connect 13 0 16 0;
#X connect 14 0 32 0;
#X connect 14 1 21 0;
#X connect 14 2 20 0;
#X connect 14 3 61 0;
#X connect 14 4 15 0;
#X connect 16 0 1 0;
#X connect 16 1 17 0;
#X connect 17 0 6 0;
#X connect 18 0 13 0;
#X connect 18 1 24 0;
#X connect 18 2 9 0;
#X connect 18 3 7 0;
#X connect 18 4 8 0;
#X connect 18 5 51 0;
#X connect 19 0 50 0;
#X connect 20 0 37 0;
#X connect 21 0 37 0;
#X connect 23 0 45 1;
#X connect 24 0 60 0;
#X connect 25 0 33 0;
#X connect 25 1 27 0;
#X connect 25 2 26 0;
#X connect 25 3 62 0;
#X connect 26 0 37 0;
#X connect 27 0 37 0;
#X connect 28 0 14 0;
#X connect 29 0 28 1;
#X connect 30 0 25 0;
#X connect 31 0 30 1;
#X connect 32 0 37 0;
#X connect 33 0 37 0;
#X connect 35 0 40 0;
#X connect 36 0 38 0;
#X connect 37 0 49 0;
#X connect 37 1 36 0;
#X connect 38 0 34 0;
#X connect 39 0 38 1;
#X connect 41 0 28 0;
#X connect 42 0 51 1;
#X connect 44 0 47 1;
#X connect 45 0 52 1;
#X connect 47 0 52 3;
#X connect 48 0 52 4;
#X connect 49 0 19 0;
#X connect 50 0 52 0;
#X connect 50 1 45 0;
#X connect 50 2 52 2;
#X connect 50 3 47 0;
#X connect 50 4 48 0;
#X connect 51 0 43 0;
#X connect 52 0 13 1;
#X connect 52 0 46 0;
#X connect 53 0 57 0;
#X connect 53 1 56 0;
#X connect 53 2 55 0;
#X connect 53 3 63 0;
#X connect 53 4 54 0;
#X connect 58 0 53 0;
#X connect 59 0 58 1;
#X connect 60 0 41 0;
#X connect 60 1 30 0;
#X connect 60 2 58 0;
#X connect 61 0 37 0;
#X connect 62 0 37 0;
#X connect 63 0 37 0;
#X restore 1258 570 pd tempo_generate_C;
#X obj 1049 793 outlet base;
#X obj 1049 755 r \$0-base;
#X text 977 296 Pour l'instant \, seule une base statique fonctionne.
Eventuellement \, il faudra considerer les modulations;
#X text 52 703 chaque boite pd tempo_generate genere une phrase en
fonction du symbole \, de la derniere note et du symbole precedent.
Presentement la position harmonique (degre harmonique) n'est pas utilisee
\, mais permettrait de donnes plus de coherence aux phrases musicales
generees;
#X text 249 593 <-texte;
#X text 1072 193 calcule la distance entre la note actuelle et la note
de depart de la piece (pas utilise);
#X obj 283 143 t s b;
#X obj 283 111 symbol;
#X connect 0 0 27 0;
#X connect 1 0 52 0;
#X connect 1 1 73 0;
#X connect 1 2 85 0;
#X connect 1 3 94 0;
#X connect 1 4 103 0;
#X connect 2 0 3 0;
#X connect 4 0 111 0;
#X connect 5 0 74 0;
#X connect 6 0 7 0;
#X connect 8 0 43 1;
#X connect 9 0 10 0;
#X connect 9 0 11 0;
#X connect 10 0 12 0;
#X connect 11 0 9 1;
#X connect 12 0 13 0;
#X connect 12 0 18 0;
#X connect 13 0 12 1;
#X connect 14 0 9 0;
#X connect 15 0 23 0;
#X connect 16 0 15 0;
#X connect 17 0 19 0;
#X connect 17 0 13 0;
#X connect 18 0 16 0;
#X connect 18 1 21 0;
#X connect 19 0 20 1;
#X connect 20 0 19 0;
#X connect 20 0 22 1;
#X connect 21 0 20 0;
#X connect 22 0 24 0;
#X connect 23 0 14 1;
#X connect 23 1 17 0;
#X connect 23 2 22 0;
#X connect 25 0 29 0;
#X connect 25 1 2 1;
#X connect 25 2 2 0;
#X connect 26 0 16 1;
#X connect 29 0 46 0;
#X connect 29 1 44 0;
#X connect 30 0 31 0;
#X connect 33 0 32 0;
#X connect 35 0 38 0;
#X connect 36 1 37 0;
#X connect 37 0 33 1;
#X connect 38 0 33 1;
#X connect 38 1 33 0;
#X connect 38 2 37 1;
#X connect 39 0 40 0;
#X connect 40 0 42 0;
#X connect 41 0 40 1;
#X connect 43 0 9 1;
#X connect 44 0 14 0;
#X connect 44 1 43 0;
#X connect 46 0 45 0;
#X connect 46 1 1 0;
#X connect 47 0 52 1;
#X connect 48 0 52 2;
#X connect 49 0 52 4;
#X connect 51 0 52 3;
#X connect 52 0 36 0;
#X connect 52 1 50 0;
#X connect 52 2 53 0;
#X connect 54 0 52 6;
#X connect 56 0 34 0;
#X connect 56 1 57 0;
#X connect 56 2 4 0;
#X connect 57 0 55 0;
#X connect 58 0 52 5;
#X connect 59 0 61 0;
#X connect 61 0 60 0;
#X connect 62 0 63 0;
#X connect 63 0 64 0;
#X connect 65 0 73 1;
#X connect 66 0 73 2;
#X connect 67 0 73 4;
#X connect 69 0 73 3;
#X connect 71 0 73 6;
#X connect 72 0 73 5;
#X connect 73 0 36 0;
#X connect 73 1 68 0;
#X connect 73 2 70 0;
#X connect 74 0 56 0;
#X connect 74 1 30 0;
#X connect 74 2 75 0;
#X connect 76 0 61 0;
#X connect 76 0 63 0;
#X connect 77 0 85 1;
#X connect 78 0 85 2;
#X connect 79 0 85 4;
#X connect 81 0 85 3;
#X connect 83 0 85 6;
#X connect 84 0 85 5;
#X connect 85 0 36 0;
#X connect 85 1 80 0;
#X connect 85 2 82 0;
#X connect 86 0 94 1;
#X connect 87 0 94 2;
#X connect 88 0 94 4;
#X connect 90 0 94 3;
#X connect 92 0 94 6;
#X connect 93 0 94 5;
#X connect 94 0 36 0;
#X connect 94 1 89 0;
#X connect 94 2 91 0;
#X connect 95 0 103 1;
#X connect 96 0 103 2;
#X connect 97 0 103 4;
#X connect 99 0 103 3;
#X connect 101 0 103 6;
#X connect 102 0 103 5;
#X connect 103 0 36 0;
#X connect 103 1 98 0;
#X connect 103 2 100 0;
#X connect 105 0 104 0;
#X connect 110 0 25 0;
#X connect 111 0 110 0;
#X restore 160 484 pd generateMeloFromSym;
#X obj 334 194 loadbang;
#X obj 369 513 t l l;
#X obj 426 555 list-len;
#X obj 454 674 last-x;
#X obj 420 622 until 0;
#X obj 437 587 t f f;
#X obj 427 646 80;
#X msg 350 258 4;
#X obj 37 197 print SPEAC phrase:;
#X obj 599 708 outlet sym-length;
#X obj 250 279 s \$0-sym-length;
#X obj 599 676 r \$0-sym-length;
#X obj 723 708 outlet base;
#X text 297 492 <- interpretation des symboles;
#X text 12 226 pas de base : 2^3 * 3^2 * 5 * 7 pour permettre une division
entiere pour tous les nombres de pas de 1 a 10 ->;
#X text 392 192 Presentement \, seuls les symboles divises en 4 notes
sont definis. Il faudra adapter les generateurs de notes et de durees.
;
#X text 297 478 <-texte;
#X text 278 162 <-generation de la phrase SPEAC <-texte;
#X connect 3 0 12 2;
#X connect 4 0 5 0;
#X connect 5 0 9 0;
#X connect 5 0 21 0;
#X connect 6 0 5 0;
#X connect 6 0 11 0;
#X connect 8 0 12 1;
#X connect 8 0 14 0;
#X connect 9 0 7 0;
#X connect 9 1 12 0;
#X connect 9 2 8 0;
#X connect 10 0 8 1;
#X connect 11 0 8 1;
#X connect 11 0 12 3;
#X connect 11 0 23 0;
#X connect 12 0 0 0;
#X connect 12 1 25 0;
#X connect 13 0 11 0;
#X connect 13 0 20 0;
#X connect 14 0 1 0;
#X connect 14 1 15 0;
#X connect 15 0 18 0;
#X connect 16 0 2 0;
#X connect 17 0 19 0;
#X connect 18 0 17 0;
#X connect 18 1 16 1;
#X connect 19 0 16 0;
#X connect 20 0 8 2;
#X connect 24 0 22 0;
#X restore 46 190 pd meloGenerator;
#X obj 81 42 bng 15 250 50 0 empty empty empty 17 7 0 10 -262144 -1
-1;
#X obj 30 609 phase1, f 21;
#X obj 80 76 t b b b;
#X text 6 4 Fabien Lamarche-Filion;
#X msg 1002 162 0 2 3 5 7 9 11;
#X floatatom 894 260 5 0 0 0 - - -, f 5;
#X obj 29 117 bng 15 250 50 0 empty empty empty 17 7 0 10 -262144 -1
-1;
#X obj 250 320 list-len;
#X obj 336 323 list-len;
#X obj 177 319 list-len;
#X floatatom 177 370 5 0 0 0 - - -, f 5;
#X floatatom 254 371 5 0 0 0 - - -, f 5;
#X floatatom 336 372 5 0 0 0 - - -, f 5;
#N canvas 1 79 1585 820 generateRandomMelo 0;
#N canvas 1 79 1585 820 selectRandomFromScale 0;
#X obj 427 283 random;
#X obj 553 231 list-len;
#X obj 480 395 list-idx;
#X obj 426 337 t b f;
#X obj 460 187 t l b l;
#X obj 460 119 inlet scale;
#X obj 520 465 outlet note;
#X connect 0 0 3 0;
#X connect 1 0 0 1;
#X connect 2 0 6 0;
#X connect 3 1 2 1;
#X connect 4 0 2 0;
#X connect 4 1 0 0;
#X connect 4 2 1 0;
#X connect 5 0 4 0;
#X restore 881 400 pd selectRandomFromScale;
#X floatatom 881 440 5 0 0 0 - - -, f 5;
#X obj 993 124 inlet scale;
#X obj 570 124 inlet generate;
#X obj 766 126 inlet signature;
#X obj 798 239 until;
#X obj 779 651 outlet melo;
#X obj 797 191 f;
#X obj 596 169 t b b b;
#X obj 851 488 last-x;
#X obj 881 296 list-extend;
#X connect 0 0 1 0;
#X connect 1 0 9 0;
#X connect 2 0 10 1;
#X connect 3 0 8 0;
#X connect 4 0 7 1;
#X connect 5 0 10 0;
#X connect 7 0 5 0;
#X connect 7 0 9 1;
#X connect 8 1 7 0;
#X connect 9 0 6 0;
#X connect 10 0 0 0;
#X restore 1109 172 pd generateRandomMelo;
#X msg 1229 123 0 2 4 5 7 9 11 13 15;
#X obj 1167 60 t b b b;
#X msg 1170 116 4;
#X obj 1169 18 bng 15 250 50 0 empty empty empty 17 7 0 10 -262144
-1 -1;
#X obj 1148 230 print melo;
#X text 1225 53 generation de melodie aleatoire a partir de gamme en
utilisant les objets list-abs plutot qu'un funbuff;
#X text 101 41 genere une melodie initiale;
#X obj 894 192 pitch-class2;
#X msg 971 162 60;
#X obj 894 127 t b b b b b;
#X obj 887 94 bng 15 250 50 0 empty empty empty 17 7 0 10 -262144 -1
-1;
#X msg 906 161 48;
#X msg 935 162 14;
#X obj 225 155 s \$0-scale;
#X obj 150 574 r \$0-scale;
#X obj 29 638 phase2, f 20;
#X obj 26 664 phase3, f 20;
#X obj 26 695 phase4, f 20;
#X msg 376 93 0 2 3 5 7 9 10;
#X msg 376 72 0 2 4 5 7 9 11;
#X text 476 73 majeur;
#X text 475 93 dorien;
#X msg 375 117 0 2 3 5 7 8 10;
#X text 476 116 eolien/mineur naturel;
#X msg 375 142 0 2 4 6 7 9 10;
#X text 473 142 Lydien B7;
#X msg 376 168 0 2 3 5 7 8 11;
#X text 479 170 mineur harmonique;
#X obj 199 112 list-extend;
#X obj 376 50 loadbang;
#X text 789 50 conversion d'intervales en notes de gammes Fait maintenant
correctement le passage d'un octave a l'autre;
#X text 203 390 compteurs pour les trois listes \, servent a monitorer
des bugs epouvantables (parfois \, len(notes) > len(dur) et len(velo)
\, Dans ces cas \, regenerer \, sinon il y aura crash);
#X text 174 528 Les loops ne marchent plus car ce sera play-melo qui
s'en occupera (encore a faire);
#X text 166 606 <-melodie initiale;
#X text 156 632 <-bass generee a partir de la melo initiale;
#X text 155 660 <-Melo d'accompagnement generee a partir de la melo
initiale;
#X text 167 694 <-nouvelle iteration de la melo d'accompagnement;
#X text 147 185 <-generation de la phrase SPEAC et de la melodie initiale
;
#X text 53 41 1 ->;
#X text 44 116 <-2;
#X text 282 33 gamme a partir de laquelle se fait la pige des notes*
;
#X text 519 199 *note: on peut utiliser des gammes aillant une autre
cardinalite que 7 et parfois trouver les resultats interessants \,
mais l'interpretation des symboles a specifiquement ete pensee pour
une game de 7 notes;
#X text 339 592 Pour l'instant \, seul l'algorithme est defini. Aucun
instrument n'a ete programme.;
#X text 155 644 <-texte;
#X text 147 197 <-texte;
#X text 154 671 <-texte;
#X text 390 329 Si les valeurs sont grandes \, la piece durera tres
longtemps. Presentement \, la piece dure ~val * 2.5 secondes \, donc
une piece de 100 pas durera plus de 4 minutes.;
#X connect 0 0 2 1;
#X connect 0 1 2 2;
#X connect 0 1 10 0;
#X connect 0 2 2 3;
#X connect 0 2 8 0;
#X connect 0 3 2 4;
#X connect 0 3 9 0;
#X connect 0 4 2 5;
#X connect 0 5 2 7;
#X connect 1 0 3 0;
#X connect 2 0 30 0;
#X connect 2 1 30 1;
#X connect 2 2 30 2;
#X connect 2 3 30 3;
#X connect 2 4 30 4;
#X connect 2 5 30 5;
#X connect 2 7 30 7;
#X connect 2 8 30 8;
#X connect 3 1 0 0;
#X connect 3 2 43 0;
#X connect 5 0 22 4;
#X connect 7 0 2 0;
#X connect 8 0 12 0;
#X connect 9 0 13 0;
#X connect 10 0 11 0;
#X connect 14 0 19 0;
#X connect 15 0 14 2;
#X connect 16 0 14 0;
#X connect 16 1 17 0;
#X connect 16 2 15 0;
#X connect 17 0 14 1;
#X connect 18 0 16 0;
#X connect 22 0 6 0;
#X connect 23 0 22 3;
#X connect 24 0 22 0;
#X connect 24 1 26 0;
#X connect 24 2 27 0;
#X connect 24 3 23 0;
#X connect 24 4 5 0;
#X connect 25 0 24 0;
#X connect 26 0 22 1;
#X connect 27 0 22 2;
#X connect 29 0 2 8;
#X connect 30 0 31 0;
#X connect 30 1 31 1;
#X connect 30 2 31 2;
#X connect 30 3 31 3;
#X connect 30 4 31 4;
#X connect 30 5 31 5;
#X connect 30 7 31 7;
#X connect 30 8 31 8;
#X connect 31 0 32 0;
#X connect 31 1 32 1;
#X connect 31 2 32 2;
#X connect 31 3 32 3;
#X connect 31 4 32 4;
#X connect 31 5 32 5;
#X connect 31 7 32 7;
#X connect 31 8 32 8;
#X connect 33 0 43 1;
#X connect 34 0 43 1;
#X connect 37 0 43 1;
#X connect 39 0 43 1;
#X connect 41 0 43 1;
#X connect 43 0 0 1;
#X connect 43 0 28 0;
#X connect 44 0 34 0;
