#N canvas 1 79 1585 820 10;
#X obj 83 36 inlet note;
#X obj 220 37 inlet dur;
#X obj 574 735 outlet note-list;
#X obj 693 735 outlet dur-list;
#X obj 83 200 select 0 1 2;
#X obj 43 530 f;
#X obj 220 91 s \$0-dur;
#X obj 58 504 r \$0-note;
#X obj 150 532 f;
#X obj 165 506 r \$0-dur;
#X obj 43 573 s \$0-note-list;
#X obj 39 268 s \$0-one;
#X obj 69 384 r \$0-one;
#X obj 497 596 r \$0-note-list;
#X obj 106 268 s \$0-two;
#X obj 173 268 s \$0-three;
#X obj 429 160 r \$0-two;
#X obj 1328 343 pitch-class2;
#X obj 834 37 inlet scale;
#X obj 1397 290 r \$0-scale;
#X obj 834 74 s \$0-scale;
#X obj 751 37 inlet base;
#X obj 751 92 s \$0-base;
#X obj 1379 224 r \$0-base;
#X obj 1328 389 f;
#X obj 1328 241 iter;
#X obj 1328 269 t b f;
#X obj 1346 305 r \$0-note;
#X msg 356 349 1 -1;
#X msg 310 350 -1 1;
#X msg 405 349 0 1;
#X msg 441 350 0 2;
#X obj 310 263 random 4;
#X obj 333 307 select 0 1 2 3;
#X obj 315 391 s \$0-to-pitch-class;
#X obj 1328 157 r \$0-to-pitch-class;
#X obj 543 350 r \$0-dur;
#X obj 706 362 r \$0-dur;
#X obj 528 420 f;
#X obj 692 502 f;
#X obj 744 466 * 2;
#X obj 729 502 f;
#X obj 594 446 t b b;
#X obj 619 382 random 2;
#X obj 619 409 select 0 1;
#X obj 644 448 t b b;
#X obj 557 281 random 2;
#X obj 557 318 select 0 1;
#X obj 1301 471 list-extend;
#X obj 1328 429 list-extend;
#X obj 705 409 div 3;
#X obj 543 380 div 2;
#X obj 850 413 s \$0-to-pitch-class;
#X obj 1153 314 r \$0-dur;
#X obj 1138 384 f;
#X obj 906 173 r \$0-three;
#X msg 775 357 0 -1 1;
#X msg 822 356 0 1 -1;
#X msg 880 356 2 -1 -1;
#X msg 938 356 -2 1 1;
#X obj 1153 344 div 3;
#X msg 989 355 0 -1 2;
#X msg 1041 353 0 1 -2;
#X obj 810 293 random 6;
#X obj 810 320 select 0 1 2 3 4 5;
#X obj 701 534 s \$0-to-dur-list;
#X obj 1138 423 s \$0-to-dur-list;
#X obj 697 586 r \$0-to-dur-list;
#X obj 697 625 list-extend;
#X obj 693 666 list-extend;
#X obj 83 63 t b b f;
#X obj 41 113 s \$0-end;
#X obj 614 619 r \$0-end;
#X obj 1428 371 r \$0-end;
#X obj 1428 396 t b b b;
#X obj 1321 531 s \$0-note-list;
#X obj 618 660 t b b b;
#X obj 325 37 inlet velo;
#X obj 325 88 s \$0-velo;
#X obj 803 735 outlet velo-list;
#X obj 429 200 t b b b;
#X obj 906 213 t b b b;
#X obj 562 222 f;
#X obj 601 141 r \$0-velo;
#X obj 562 252 s \$0-to-velo-list;
#X obj 1077 231 f;
#X obj 1116 161 r \$0-velo;
#X obj 1077 261 s \$0-to-velo-list;
#X obj 885 621 list-extend;
#X obj 881 662 list-extend;
#X obj 802 615 r \$0-end;
#X obj 808 661 t b b b;
#X obj 885 582 r \$0-to-velo-list;
#X obj 68 165 random 3;
#X obj 498 680 list-extend;
#X obj 497 642 list-extend;
#X obj 415 563 r \$0-end;
#X obj 423 591 t b b b;
#X floatatom 304 133 5 0 0 0 - - -, f 5;
#X floatatom 434 96 5 0 0 0 - - -, f 5;
#X floatatom 181 75 5 0 0 0 - - -, f 5;
#X obj 122 108 s \$0-note;
#X obj 150 573 s \$0-to-dur-list;
#X obj 69 417 t b b b;
#X obj 260 532 f;
#X obj 260 573 s \$0-to-velo-list;
#X obj 275 448 r \$0-velo;
#X obj 481 465 s \$0-to-dur-list;
#X msg 537 158 2;
#X obj 537 185 until;
#X msg 1029 165 3;
#X obj 1042 198 until;
#X msg 1095 311 3;
#X obj 1095 353 until;
#X msg 507 355 2;
#X obj 486 389 until;
#X obj 1301 206 t b l;
#X connect 0 0 70 0;
#X connect 0 0 100 0;
#X connect 1 0 6 0;
#X connect 1 0 98 0;
#X connect 4 0 11 0;
#X connect 4 1 14 0;
#X connect 4 2 15 0;
#X connect 5 0 10 0;
#X connect 7 0 5 1;
#X connect 8 0 102 0;
#X connect 9 0 8 1;
#X connect 12 0 103 0;
#X connect 13 0 95 0;
#X connect 16 0 80 0;
#X connect 17 0 24 0;
#X connect 18 0 20 0;
#X connect 19 0 17 4;
#X connect 21 0 22 0;
#X connect 23 0 17 3;
#X connect 24 0 17 1;
#X connect 24 0 49 0;
#X connect 25 0 26 0;
#X connect 26 0 17 0;
#X connect 26 1 17 2;
#X connect 27 0 17 1;
#X connect 28 0 34 0;
#X connect 29 0 34 0;
#X connect 30 0 34 0;
#X connect 31 0 34 0;
#X connect 32 0 33 0;
#X connect 33 0 29 0;
#X connect 33 1 28 0;
#X connect 33 2 30 0;
#X connect 33 3 31 0;
#X connect 35 0 116 0;
#X connect 36 0 51 0;
#X connect 37 0 50 0;
#X connect 38 0 107 0;
#X connect 39 0 65 0;
#X connect 40 0 41 1;
#X connect 41 0 65 0;
#X connect 42 0 39 0;
#X connect 42 1 41 0;
#X connect 43 0 44 0;
#X connect 44 0 42 0;
#X connect 44 1 45 0;
#X connect 45 0 41 0;
#X connect 45 1 39 0;
#X connect 46 0 47 0;
#X connect 47 0 114 0;
#X connect 47 1 43 0;
#X connect 48 0 75 0;
#X connect 49 0 48 1;
#X connect 50 0 39 1;
#X connect 50 0 40 0;
#X connect 51 0 38 1;
#X connect 53 0 60 0;
#X connect 54 0 66 0;
#X connect 55 0 81 0;
#X connect 56 0 52 0;
#X connect 57 0 52 0;
#X connect 58 0 52 0;
#X connect 59 0 52 0;
#X connect 60 0 54 1;
#X connect 61 0 52 0;
#X connect 62 0 52 0;
#X connect 63 0 64 0;
#X connect 64 0 56 0;
#X connect 64 1 57 0;
#X connect 64 2 58 0;
#X connect 64 3 59 0;
#X connect 64 4 61 0;
#X connect 64 6 62 0;
#X connect 67 0 68 0;
#X connect 68 0 69 1;
#X connect 69 0 3 0;
#X connect 70 0 71 0;
#X connect 70 1 93 0;
#X connect 70 2 101 0;
#X connect 72 0 76 0;
#X connect 73 0 74 0;
#X connect 74 0 49 1;
#X connect 74 1 48 1;
#X connect 76 0 68 1;
#X connect 76 1 69 1;
#X connect 76 2 69 0;
#X connect 77 0 78 0;
#X connect 77 0 99 0;
#X connect 80 0 32 0;
#X connect 80 1 46 0;
#X connect 80 2 108 0;
#X connect 81 0 63 0;
#X connect 81 1 112 0;
#X connect 81 2 110 0;
#X connect 82 0 84 0;
#X connect 83 0 82 1;
#X connect 85 0 87 0;
#X connect 86 0 85 1;
#X connect 88 0 89 1;
#X connect 89 0 79 0;
#X connect 90 0 91 0;
#X connect 91 0 88 1;
#X connect 91 1 89 1;
#X connect 91 2 89 0;
#X connect 92 0 88 0;
#X connect 93 0 4 0;
#X connect 94 0 2 0;
#X connect 95 0 94 1;
#X connect 96 0 97 0;
#X connect 97 0 94 1;
#X connect 97 1 95 1;
#X connect 97 2 94 0;
#X connect 103 0 5 0;
#X connect 103 1 8 0;
#X connect 103 2 104 0;
#X connect 104 0 105 0;
#X connect 106 0 104 1;
#X connect 108 0 109 0;
#X connect 109 0 82 0;
#X connect 110 0 111 0;
#X connect 111 0 85 0;
#X connect 112 0 113 0;
#X connect 113 0 54 0;
#X connect 114 0 115 0;
#X connect 115 0 38 0;
#X connect 116 0 48 0;
#X connect 116 1 25 0;
