#N canvas 894 153 620 300 10;
#X obj 124 31 inlet bang;
#X obj 159 254 outlet;
#X msg 84 160 0 1 -2 1;
#X msg 390 160 0 -1 2 -1;
#X msg 308 156 5 -2 -2 -1;
#X msg 226 158 5 -1 -2 -2;
#X obj 83 44 bng 15 250 50 0 empty empty empty 17 7 0 10 -262144 -1
-1;
#X obj 153 86 random 5;
#X obj 141 117 select 0 1 2 3 4;
#X msg 153 159 -2 1 2 -1;
#X connect 0 0 7 0;
#X connect 2 0 1 0;
#X connect 3 0 1 0;
#X connect 4 0 1 0;
#X connect 5 0 1 0;
#X connect 6 0 7 0;
#X connect 7 0 8 0;
#X connect 8 0 2 0;
#X connect 8 1 9 0;
#X connect 8 2 5 0;
#X connect 8 3 4 0;
#X connect 8 4 3 0;
#X connect 9 0 1 0;
