#N canvas 704 156 450 557 10;
#X obj 121 15 inlet bang;
#X obj 198 472 outlet;
#X obj 98 262 four;
#X obj 148 262 one;
#X obj 191 263 three;
#X obj 236 264 two;
#X obj 136 322 list-extend;
#X obj 319 254 t b b b;
#X obj 136 380 list-extend;
#X obj 112 182 t b b b;
#X obj 188 181 t b b b;
#X obj 123 53 random 2;
#X obj 84 465 print;
#X obj 76 22 bng 15 250 50 0 empty empty empty 17 7 0 10 -262144 -1
-1;
#X obj 6 353 print list-extend1;
#X obj 200 429 print list-extend2;
#X obj 58 306 print;
#X obj 124 90 select 0 1;
#X floatatom 69 99 5 0 0 0 - - -, f 5;
#X obj 11 141 print random 0;
#X connect 0 0 11 0;
#X connect 2 0 6 0;
#X connect 3 0 6 0;
#X connect 3 0 16 0;
#X connect 4 0 6 0;
#X connect 5 0 6 0;
#X connect 6 0 8 1;
#X connect 6 0 14 0;
#X connect 7 1 8 0;
#X connect 7 2 6 1;
#X connect 8 0 1 0;
#X connect 8 0 12 0;
#X connect 8 0 15 0;
#X connect 9 0 7 0;
#X connect 9 1 2 0;
#X connect 9 2 3 0;
#X connect 10 0 7 0;
#X connect 10 1 4 0;
#X connect 10 2 5 0;
#X connect 11 0 17 0;
#X connect 11 0 18 0;
#X connect 13 0 11 0;
#X connect 17 0 9 0;
#X connect 17 0 19 0;
#X connect 17 1 10 0;
