#N canvas 328 201 450 300 10;
#X obj 130 21 inlet sym-list;
#X obj 228 21 inlet note-list;
#X obj 331 20 inlet durList;
#X obj 426 21 inlet veloList;
#X obj 519 21 inlet sym-length;
#X obj 69 758 outlet sym-list;
#X obj 169 758 outlet note-list;
#X obj 277 759 outlet durList;
#X obj 371 759 outlet veloList;
#X obj 470 759 outlet sym-length;
#X obj 34 22 inlet start;
#X obj 165 140 list-extend;
#X obj 268 292 list-extend;
#X obj 165 220 until;
#X obj 165 165 t l l;
#X obj 180 292 list-extend;
#X obj 180 343 car;
#X obj 268 343 car;
#X obj 207 343 cdr;
#X obj 180 314 t l l;
#X obj 268 314 t l l;
#X obj 295 343 cdr;
#X obj 165 241 t b b;
#X obj 165 571 list-extend;
#X obj 167 614 list-extend;
#X obj 268 398 +;
#X obj 299 398 f;
#X obj 268 430 mod;
#X obj 344 403 r \$0-sym-length;
#X obj 519 74 s \$0-sym-length;
#X obj 325 343 r \$0-start;
#X msg 325 367 0;
#X obj 89 84 s \$0-start;
#X obj 268 139 list-extend;
#X obj 165 528 f;
#X obj 268 466 select 0;
#X obj 294 569 list-extend;
#X obj 317 534 f;
#X obj 332 510 r \$0-sym-length;
#X obj 294 610 list-extend;
#X obj 50 58 t b b b;
#X obj 69 119 t b b;
#X obj 50 155 s \$0-end;
#X obj 74 546 r \$0-end;
#X obj 248 500 t b b b;
#X obj 481 540 list-extend;
#X obj 481 568 car;
#X obj 426 53 s \$0-velo-list;
#X obj 544 508 r \$0-velo-list;
#X obj 481 594 list-extend;
#X obj 481 635 list-extend;
#X obj 74 573 t b b b;
#X obj 130 53 s \$0-sym-list;
#X obj 470 723 r \$0-sym-length;
#X obj 69 715 r \$0-sym-list;
#X obj 165 192 list-len;
#X obj 228 538 r \$0-start;
#X obj 357 535 r \$0-start;
#X obj 544 457 r \$0-start;
#X obj 165 549 - 12;
#X connect 0 0 52 0;
#X connect 1 0 11 1;
#X connect 2 0 33 1;
#X connect 3 0 47 0;
#X connect 4 0 29 0;
#X connect 10 0 40 0;
#X connect 11 0 14 0;
#X connect 12 0 20 0;
#X connect 13 0 22 0;
#X connect 14 0 55 0;
#X connect 14 1 15 1;
#X connect 15 0 19 0;
#X connect 16 0 34 1;
#X connect 17 0 25 0;
#X connect 18 0 15 1;
#X connect 19 0 16 0;
#X connect 19 1 18 0;
#X connect 20 0 17 0;
#X connect 20 1 21 0;
#X connect 21 0 12 1;
#X connect 22 0 12 0;
#X connect 22 1 15 0;
#X connect 23 0 24 1;
#X connect 24 0 6 0;
#X connect 25 0 26 0;
#X connect 25 0 27 0;
#X connect 26 0 25 1;
#X connect 27 0 35 0;
#X connect 28 0 27 1;
#X connect 30 0 31 0;
#X connect 31 0 26 1;
#X connect 33 0 12 1;
#X connect 34 0 59 0;
#X connect 35 0 44 0;
#X connect 36 0 39 1;
#X connect 37 0 36 0;
#X connect 38 0 37 1;
#X connect 39 0 7 0;
#X connect 40 0 42 0;
#X connect 40 1 41 0;
#X connect 40 2 32 0;
#X connect 41 0 11 0;
#X connect 41 1 33 0;
#X connect 43 0 51 0;
#X connect 44 0 34 0;
#X connect 44 1 37 0;
#X connect 44 2 45 0;
#X connect 45 0 46 0;
#X connect 46 0 49 0;
#X connect 48 0 45 1;
#X connect 49 0 50 1;
#X connect 50 0 8 0;
#X connect 51 0 24 0;
#X connect 51 1 39 0;
#X connect 51 2 50 0;
#X connect 53 0 9 0;
#X connect 54 0 5 0;
#X connect 55 0 13 0;
#X connect 56 0 23 1;
#X connect 57 0 36 1;
#X connect 59 0 23 0;
