#N canvas 1 79 1585 820 10;
#X obj 130 21 inlet sym-list;
#X obj 228 21 inlet note-list;
#X obj 331 20 inlet durList;
#X obj 426 21 inlet veloList;
#X obj 519 21 inlet sym-length;
#X obj 34 22 inlet start;
#X obj 165 140 list-extend;
#X obj 339 290 list-extend;
#X obj 165 220 until;
#X obj 165 165 t l l;
#X obj 180 292 list-extend;
#X obj 180 343 car;
#X obj 339 341 car;
#X obj 207 343 cdr;
#X obj 180 314 t l l;
#X obj 339 312 t l l;
#X obj 366 341 cdr;
#X obj 519 74 s \$0-sym-length;
#X obj 595 274 r \$0-start;
#X obj 89 84 s \$0-start;
#X obj 268 139 list-extend;
#X obj 50 58 t b b b;
#X obj 69 119 t b b;
#X obj 50 155 s \$0-end;
#X obj 426 53 s \$0-velo-list;
#X obj 130 53 s \$0-sym-list;
#X obj 165 192 list-len;
#X obj 178 514 list-extend;
#X obj 270 511 list-extend;
#X obj 728 22 inlet scale;
#X obj 728 71 s \$0-scale;
#X obj 336 398 r \$0-scale;
#X obj 650 25 inlet base;
#X obj 650 63 s \$0-base;
#X obj 340 369 r \$0-base;
#X obj 177 566 list-extend;
#X obj 270 565 list-extend;
#X obj 94 482 r \$0-end;
#X obj 354 514 list-extend;
#X obj 354 568 list-extend;
#X obj 69 758 outlet sym-list;
#X obj 169 758 outlet note-list;
#X obj 277 759 outlet durList;
#X obj 371 759 outlet veloList;
#X obj 470 759 outlet sym-length;
#X obj 470 723 r \$0-sym-length;
#X obj 69 715 r \$0-sym-list;
#X obj 88 513 t b b b b b b;
#X obj 683 165 print BASE:;
#X msg 822 334 60;
#X msg 855 335 0 2 4 5 7 9 11;
#X msg 762 334 630;
#X msg 794 334 80;
#X msg 723 333 60;
#X obj 733 275 t b b b b b;
#X obj 716 235 bng 15 250 50 0 empty empty empty 17 7 0 10 -262144
-1 -1;
#X obj 676 459 print decorate note list;
#X obj 794 438 print decorate dur list;
#X obj 817 416 print decorate velo list;
#X obj 211 431 decorate;
#X obj 772 392 decorate;
#X obj 258 292 list-extend;
#X obj 258 343 car;
#X obj 258 314 t l l;
#X obj 285 343 cdr;
#X obj 258 239 r \$0-velo-list;
#X obj 165 241 t b b b;
#X text 962 323 decorate utilise un tuple (note dur velo base gamme)
pour retourner une melodie en trois listes (notes dur velo). Ces melodies
ont une duree egale a la note entrante et servent a decorer la melodie
principale.;
#X connect 0 0 25 0;
#X connect 1 0 6 1;
#X connect 2 0 20 1;
#X connect 3 0 24 0;
#X connect 4 0 17 0;
#X connect 5 0 21 0;
#X connect 6 0 9 0;
#X connect 7 0 15 0;
#X connect 8 0 66 0;
#X connect 9 0 26 0;
#X connect 9 1 10 1;
#X connect 10 0 14 0;
#X connect 11 0 59 0;
#X connect 12 0 59 1;
#X connect 13 0 10 1;
#X connect 14 0 11 0;
#X connect 14 1 13 0;
#X connect 15 0 12 0;
#X connect 15 1 16 0;
#X connect 16 0 7 1;
#X connect 20 0 7 1;
#X connect 21 0 23 0;
#X connect 21 1 22 0;
#X connect 21 2 19 0;
#X connect 22 0 6 0;
#X connect 22 1 20 0;
#X connect 26 0 8 0;
#X connect 27 0 35 1;
#X connect 28 0 36 1;
#X connect 29 0 30 0;
#X connect 31 0 59 4;
#X connect 32 0 33 0;
#X connect 32 0 48 0;
#X connect 34 0 59 3;
#X connect 35 0 41 0;
#X connect 36 0 42 0;
#X connect 37 0 47 0;
#X connect 38 0 39 1;
#X connect 39 0 43 0;
#X connect 45 0 44 0;
#X connect 46 0 40 0;
#X connect 47 0 27 1;
#X connect 47 1 35 0;
#X connect 47 2 28 1;
#X connect 47 3 36 0;
#X connect 47 4 38 1;
#X connect 47 5 39 0;
#X connect 49 0 60 3;
#X connect 50 0 60 4;
#X connect 51 0 60 1;
#X connect 52 0 60 2;
#X connect 53 0 60 0;
#X connect 54 0 53 0;
#X connect 54 1 51 0;
#X connect 54 2 52 0;
#X connect 54 3 49 0;
#X connect 54 4 50 0;
#X connect 55 0 54 0;
#X connect 59 0 27 0;
#X connect 59 1 28 0;
#X connect 59 2 38 0;
#X connect 60 0 56 0;
#X connect 60 1 57 0;
#X connect 60 2 58 0;
#X connect 61 0 63 0;
#X connect 62 0 59 2;
#X connect 63 0 62 0;
#X connect 63 1 64 0;
#X connect 64 0 61 1;
#X connect 65 0 61 1;
#X connect 66 0 7 0;
#X connect 66 1 10 0;
#X connect 66 2 61 0;
