#N canvas 393 269 450 300 10;
#X obj 135 137 until;
#X obj 124 183 list-extend;
#X obj 155 54 t b l l;
#X obj 151 238 car;
#X obj 124 213 t l l;
#X obj 155 94 list-len;
#X obj 124 238 cdr;
#X obj 155 11 inlet list;
#X obj 151 270 outlet car-stream;
#X connect 0 0 1 0;
#X connect 1 0 4 0;
#X connect 2 1 5 0;
#X connect 2 2 1 1;
#X connect 3 0 8 0;
#X connect 4 0 6 0;
#X connect 4 1 3 0;
#X connect 5 0 0 0;
#X connect 6 0 1 1;
#X connect 7 0 2 0;
