#N canvas 380 114 450 617 10;
#X obj 134 74 inlet lst;
#X obj 128 332 outlet val;
#X obj 144 248 list-nth;
#X obj 189 156 list-len;
#X obj 134 112 t l l;
#X obj 189 206 - 1;
#X connect 0 0 4 0;
#X connect 2 0 1 0;
#X connect 3 0 5 0;
#X connect 4 0 2 0;
#X connect 4 1 3 0;
#X connect 5 0 2 1;
