#N canvas 1 79 1585 820 10;
#X obj 447 32 inlet list;
#X obj 326 31 inlet val;
#X obj 384 216 list-extend;
#X obj 384 312 iter;
#X obj 384 348 t f b;
#X obj 411 392 counter;
#X obj 384 247 t l l;
#X obj 369 392 ==;
#X obj 339 432 select 1;
#X obj 447 63 s \$0-list;
#X obj 447 142 r \$0-list;
#X obj 429 697 outlet bool;
#X obj 326 121 t b f;
#X obj 450 276 list-len;
#X msg 597 172 1 2 3 4 5 6 6;
#X floatatom 504 319 5 0 0 0 - - -, f 5;
#X obj 384 166 t b b;
#X obj 453 312 - 0;
#X obj 396 508 f;
#X connect 0 0 9 0;
#X connect 1 0 12 0;
#X connect 2 0 6 0;
#X connect 3 0 4 0;
#X connect 4 0 7 0;
#X connect 4 1 5 0;
#X connect 5 0 18 1;
#X connect 6 0 3 0;
#X connect 6 1 13 0;
#X connect 7 0 8 0;
#X connect 8 0 18 0;
#X connect 10 0 2 1;
#X connect 12 0 16 0;
#X connect 12 1 7 1;
#X connect 13 0 15 0;
#X connect 13 0 17 0;
#X connect 14 0 2 1;
#X connect 16 0 2 0;
#X connect 16 1 5 2;
#X connect 17 0 5 4;
#X connect 18 0 11 0;
