#N canvas 1 79 1585 820 10;
#X obj 238 26 inlet list;
#X obj 117 23 inlet val;
#X obj 175 210 list-extend;
#X obj 175 306 iter;
#X obj 175 342 t f b;
#X obj 202 386 counter;
#X obj 175 241 t l l;
#X obj 160 386 ==;
#X obj 160 426 select 1;
#X obj 238 57 s \$0-list;
#X obj 238 136 r \$0-list;
#X msg 160 496 1;
#X msg 228 496 0;
#X obj 193 575 +;
#X obj 193 634 t b f;
#X obj 220 691 outlet bool;
#X msg 120 605 0;
#X obj 228 441 t b;
#X obj 117 115 t b f;
#X floatatom 107 237 5 0 0 0 - - -, f 5;
#X obj 85 358 print iter;
#X floatatom 278 432 5 0 0 0 - - -, f 5;
#X obj 241 270 list-len;
#X obj 241 306 - 1;
#X connect 0 0 9 0;
#X connect 1 0 18 0;
#X connect 2 0 6 0;
#X connect 3 0 4 0;
#X connect 3 0 20 0;
#X connect 4 0 7 0;
#X connect 4 1 5 0;
#X connect 5 2 17 0;
#X connect 5 2 21 0;
#X connect 6 0 3 0;
#X connect 6 1 22 0;
#X connect 7 0 8 0;
#X connect 8 0 11 0;
#X connect 10 0 2 1;
#X connect 11 0 13 1;
#X connect 12 0 13 0;
#X connect 13 0 14 0;
#X connect 14 0 16 0;
#X connect 14 1 15 0;
#X connect 16 0 13 1;
#X connect 17 0 12 0;
#X connect 18 0 2 0;
#X connect 18 1 7 1;
#X connect 18 1 19 0;
#X connect 22 0 23 0;
#X connect 23 0 5 4;
