#N canvas 884 158 620 300 10;
#X obj 124 31 inlet bang;
#X obj 159 254 outlet;
#X obj 83 44 bng 15 250 50 0 empty empty empty 17 7 0 10 -262144 -1
-1;
#X obj 153 86 random 5;
#X obj 141 117 select 0 1 2 3 4;
#X msg 84 160 1 1 1 1;
#X msg 153 159 0 1 1 2;
#X msg 220 157 -1 -1 4 2;
#X msg 308 156 -3 2 2 2;
#X msg 390 158 0 -1 2 -4;
#X connect 0 0 3 0;
#X connect 2 0 3 0;
#X connect 3 0 4 0;
#X connect 4 0 5 0;
#X connect 4 1 6 0;
#X connect 4 2 7 0;
#X connect 4 3 8 0;
#X connect 4 4 9 0;
#X connect 5 0 1 0;
#X connect 6 0 1 0;
#X connect 7 0 1 0;
#X connect 8 0 1 0;
#X connect 9 0 1 0;
