#N canvas 0 79 1600 821 10;
#X obj 130 56 inlet bang;
#X obj 136 283 outlet;
#X obj 89 69 bng 15 250 50 0 empty empty empty 17 7 0 10 -262144 -1
-1;
#X obj 130 115 random 5;
#X obj 118 146 select 0 1 2 3 4;
#X msg 58 188 2 2 1 1;
#X msg 130 188 1 2 1 2;
#X msg 204 183 -1 -2 -2 -2;
#X msg 311 185 -3 3 3 3;
#X msg 389 186 7 -1 -1 1;
#X connect 0 0 3 0;
#X connect 2 0 3 0;
#X connect 3 0 4 0;
#X connect 4 0 5 0;
#X connect 4 1 6 0;
#X connect 4 2 7 0;
#X connect 4 3 8 0;
#X connect 4 4 9 0;
#X connect 5 0 1 0;
#X connect 6 0 1 0;
#X connect 7 0 1 0;
#X connect 8 0 1 0;
#X connect 9 0 1 0;
