#N canvas 761 190 620 457 10;
#X obj 120 31 inlet bang;
#X obj 288 346 outlet;
#X obj 269 180 random 5;
#X obj 270 209 select 0 1 2 3 4;
#X msg 187 251 3 -2 -2 -3;
#X msg 264 253 2 -2 -2 -2;
#X msg 345 252 1 -2 -2 -1;
#X msg 419 252 1 0 0 0;
#X msg 483 250 -1 -1 -1 -1;
#X connect 0 0 2 0;
#X connect 2 0 3 0;
#X connect 3 0 4 0;
#X connect 3 1 5 0;
#X connect 3 2 6 0;
#X connect 3 3 7 0;
#X connect 3 4 8 0;
#X connect 4 0 1 0;
#X connect 5 0 1 0;
#X connect 6 0 1 0;
#X connect 7 0 1 0;
#X connect 8 0 1 0;
