#N canvas 1 79 1585 820 10;
#X obj 234 13 inlet noteList;
#X obj 53 14 inlet start;
#X obj 330 13 inlet durList;
#X obj 425 14 inlet veloList;
#X obj 632 14 inlet nbLoop;
#X obj 315 702 outlet noteList;
#X obj 436 697 outlet durList;
#X obj 541 697 outlet veloList;
#X obj 268 39 list-len;
#X obj 268 62 s \$0-len;
#X obj 672 50 s \$0-nbLoops;
#X obj 131 13 inlet sym-list;
#X obj 141 697 outlet sym-list;
#X obj 47 697 outlet start;
#X obj 348 40 list-accum;
#X obj 348 66 s \$0-loop-length;
#X obj 56 419 t b b;
#X obj 25 565 delay;
#X obj 116 455 r \$0-nbLoops;
#X obj 101 508 * 1;
#X obj 319 158 list-extend;
#X obj 216 160 list-extend;
#X obj 122 138 list-extend;
#X obj 450 153 list-extend;
#X obj 556 106 f;
#X obj 630 78 f;
#X obj 450 217 s \$0-velo-list;
#X obj 122 223 s \$0-sym-list;
#X obj 215 220 s \$0-note-list;
#X obj 315 243 s \$0-dur-list;
#X obj 616 405 r \$0-velo-list;
#X obj 599 385 r \$0-dur-list;
#X obj 565 329 r \$0-note-list;
#X obj 529 16 inlet sym-length;
#X obj 568 150 s \$0-sym-length;
#X obj 53 61 t b b b b b b b;
#X obj 447 413 r \$0-start-melo;
#X obj 86 358 s \$0-start-melo;
#X obj 520 518 play-melo;
#X obj 56 260 t b b b b b b;
#X obj 873 19 inlet scale;
#X obj 885 56 s \$0-scale;
#X obj 777 15 inlet base;
#X obj 777 41 s \$0-base;
#X obj 653 698 outlet sym-length;
#X obj 773 696 outlet nbLoop;
#X obj 293 637 r \$0-note-list;
#X obj 141 641 r \$0-sym-list;
#X obj 436 631 r \$0-dur-list;
#X obj 541 630 r \$0-velo-list;
#X obj 653 650 r \$0-sym-length;
#X obj 773 646 r \$0-nbLoops;
#X obj 872 694 outlet base;
#X obj 959 687 outlet scale;
#X obj 867 634 r \$0-base;
#X obj 975 649 r \$0-scale;
#X obj 101 420 r \$0-loop-length;
#X connect 0 0 8 0;
#X connect 0 0 21 1;
#X connect 1 0 35 0;
#X connect 2 0 14 0;
#X connect 2 0 20 1;
#X connect 3 0 23 1;
#X connect 4 0 10 0;
#X connect 4 0 25 1;
#X connect 8 0 9 0;
#X connect 11 0 22 1;
#X connect 14 0 15 0;
#X connect 16 1 17 0;
#X connect 17 0 13 0;
#X connect 18 0 19 1;
#X connect 19 0 17 1;
#X connect 20 0 29 0;
#X connect 21 0 28 0;
#X connect 22 0 27 0;
#X connect 23 0 26 0;
#X connect 24 0 34 0;
#X connect 30 0 38 3;
#X connect 31 0 38 2;
#X connect 32 0 38 1;
#X connect 33 0 24 1;
#X connect 35 0 39 0;
#X connect 35 1 22 0;
#X connect 35 2 21 0;
#X connect 35 3 20 0;
#X connect 35 4 23 0;
#X connect 35 5 24 0;
#X connect 35 6 25 0;
#X connect 36 0 38 0;
#X connect 39 0 16 0;
#X connect 39 2 37 0;
#X connect 40 0 41 0;
#X connect 42 0 43 0;
#X connect 46 0 5 0;
#X connect 47 0 12 0;
#X connect 48 0 6 0;
#X connect 49 0 7 0;
#X connect 50 0 44 0;
#X connect 51 0 45 0;
#X connect 54 0 52 0;
#X connect 55 0 53 0;
#X connect 56 0 19 0;
