#N canvas 1 79 1585 820 10;
#X obj 680 46 inlet list;
#X obj 429 41 inlet interval;
#X obj 162 38 inlet start;
#X obj 617 112 list-extend;
#X obj 770 784 outlet note-out;
#X obj 547 41 inlet base;
#X obj 291 40 inlet last-note;
#X obj 414 111 f;
#X obj 276 106 f;
#X obj 414 138 s \$0-interval;
#X obj 547 187 s \$0-base;
#X obj 276 139 s \$0-last-note;
#X obj 770 105 r \$0-base;
#X obj 617 138 s \$0-list;
#X obj 725 289 normalize-octave;
#X obj 547 154 t f f b;
#X obj 770 146 - 60;
#X obj 755 229 +;
#X obj 770 389 +;
#X obj 725 361 list-id;
#X obj 785 361 r \$0-interval;
#X obj 764 333 r \$0-list;
#X obj 662 179 r \$0-last-note;
#X obj 770 646 list-idx;
#X obj 833 599 r \$0-list;
#X obj 770 693 +;
#X obj 207 69 t b b b b;
#X obj 725 263 - 60;
#X floatatom 787 188 5 0 0 0 - - -, f 5;
#X obj 547 110 f;
#X obj 770 599 t b f;
#X obj 770 622 list-extend;
#X obj 785 665 r \$0-base;
#X obj 1106 337 r \$0-octave;
#X obj 770 746 +;
#X obj 770 418 moses 0;
#X obj 857 465 moses;
#X obj 710 505 div;
#X obj 710 554 s \$0-octave;
#X obj 785 721 r \$0-octave-total;
#X obj 1245 512 * 12;
#X obj 1245 566 s \$0-octave-total;
#X obj 953 495 div;
#X obj 953 523 s \$0-octave;
#X obj 683 462 t f f;
#X obj 683 621 mod;
#X obj 872 46 r \$0-list;
#X obj 872 77 list-len;
#X obj 842 152 s \$0-lgth;
#X obj 725 479 r \$0-lgth;
#X obj 968 464 r \$0-lgth;
#X obj 698 583 r \$0-lgth;
#X obj 899 432 r \$0-lgth;
#X obj 900 572 mod;
#X obj 899 498 t f f;
#X obj 915 548 r \$0-lgth;
#X floatatom 859 512 5 0 0 0 - - -, f 5;
#X obj 801 504 t f b;
#X msg 828 524 0;
#X obj 828 547 s \$0-octave;
#X obj 710 530 - 0;
#X obj 1176 298 r \$0-last-note;
#X obj 1195 369 -;
#X obj 1197 257 r \$0-base;
#X obj 1195 393 div 12;
#X obj 1171 419 +;
#X connect 0 0 3 1;
#X connect 1 0 7 1;
#X connect 2 0 26 0;
#X connect 3 0 13 0;
#X connect 5 0 29 1;
#X connect 6 0 8 1;
#X connect 7 0 9 0;
#X connect 8 0 11 0;
#X connect 12 0 16 0;
#X connect 14 0 19 0;
#X connect 15 0 10 0;
#X connect 16 0 17 1;
#X connect 16 0 28 0;
#X connect 17 0 27 0;
#X connect 18 0 35 0;
#X connect 19 0 18 0;
#X connect 20 0 18 1;
#X connect 21 0 19 1;
#X connect 22 0 17 0;
#X connect 23 0 25 0;
#X connect 24 0 31 1;
#X connect 25 0 34 0;
#X connect 26 0 8 0;
#X connect 26 1 7 0;
#X connect 26 2 29 0;
#X connect 26 3 3 0;
#X connect 27 0 14 0;
#X connect 29 0 15 0;
#X connect 30 0 31 0;
#X connect 30 1 23 1;
#X connect 31 0 23 0;
#X connect 32 0 25 1;
#X connect 33 0 65 0;
#X connect 34 0 4 0;
#X connect 35 0 44 0;
#X connect 35 1 36 0;
#X connect 36 0 56 0;
#X connect 36 0 57 0;
#X connect 36 1 54 0;
#X connect 37 0 60 0;
#X connect 39 0 34 1;
#X connect 40 0 41 0;
#X connect 42 0 43 0;
#X connect 44 0 45 0;
#X connect 44 1 37 0;
#X connect 45 0 30 0;
#X connect 46 0 47 0;
#X connect 47 0 48 0;
#X connect 49 0 37 1;
#X connect 50 0 42 1;
#X connect 51 0 45 1;
#X connect 52 0 36 1;
#X connect 53 0 30 0;
#X connect 54 0 53 0;
#X connect 54 1 42 0;
#X connect 55 0 53 1;
#X connect 57 0 30 0;
#X connect 57 1 58 0;
#X connect 58 0 59 0;
#X connect 60 0 38 0;
#X connect 61 0 62 0;
#X connect 62 0 64 0;
#X connect 63 0 62 1;
#X connect 64 0 65 1;
#X connect 65 0 40 0;
