#N canvas 1 79 1585 820 10;
#X obj 238 509 list-idx;
#X floatatom 363 384 5 0 0 0 - - -, f 5;
#X obj 271 147 r \$0-length;
#X obj 768 42 inlet list;
#X obj 291 32 inlet note;
#X obj 412 34 inlet interval;
#X obj 456 368 ==;
#X obj 256 319 counter;
#X obj 295 274 r \$0-length;
#X obj 256 408 t b f;
#X obj 256 179 f;
#X obj 834 176 list-len;
#X obj 832 204 s \$0-length;
#X msg 967 61 0 2 3 5 7 9 11;
#X obj 256 444 list-extend;
#X obj 952 119 t l l;
#X obj 256 279 until;
#X obj 295 297 - 1;
#X obj 983 338 t l l;
#X obj 410 281 mod 12;
#X obj 161 30 inlet start;
#X obj 237 95 t b b b;
#X obj 276 241 f;
#X obj 397 469 f;
#X obj 768 80 list-extend;
#X obj 425 433 sel 1;
#X obj 397 515 +;
#X obj 256 371 t f f;
#X obj 237 56 bng 15 250 50 0 empty empty empty 17 7 0 10 -262144 -1
-1;
#X obj 594 662 list-extend;
#X obj 594 709 list-idx;
#X obj 594 622 t b f;
#X obj 594 596 mod;
#X obj 609 568 r \$0-length;
#X msg 315 216 60;
#X obj 222 789 outlet note-out;
#X obj 223 766 f;
#X obj 587 35 inlet base;
#X obj 282 339 t b;
#X connect 0 0 1 0;
#X connect 1 0 6 0;
#X connect 2 0 10 1;
#X connect 3 0 24 0;
#X connect 4 0 22 1;
#X connect 5 0 23 1;
#X connect 6 0 25 0;
#X connect 7 0 27 0;
#X connect 7 2 38 0;
#X connect 8 0 17 0;
#X connect 9 0 14 0;
#X connect 9 1 0 1;
#X connect 10 0 16 0;
#X connect 11 0 12 0;
#X connect 13 0 15 0;
#X connect 14 0 0 0;
#X connect 15 0 11 0;
#X connect 15 1 18 0;
#X connect 16 0 7 0;
#X connect 17 0 7 4;
#X connect 18 0 14 1;
#X connect 18 1 29 1;
#X connect 19 0 6 1;
#X connect 20 0 21 0;
#X connect 21 0 36 0;
#X connect 21 1 10 0;
#X connect 21 2 22 0;
#X connect 22 0 19 0;
#X connect 23 0 26 0;
#X connect 24 0 15 0;
#X connect 25 0 23 0;
#X connect 26 0 32 0;
#X connect 27 0 9 0;
#X connect 27 1 26 1;
#X connect 28 0 21 0;
#X connect 29 0 30 0;
#X connect 30 0 36 1;
#X connect 31 0 29 0;
#X connect 31 1 30 1;
#X connect 32 0 31 0;
#X connect 33 0 32 1;
#X connect 34 0 22 1;
#X connect 36 0 35 0;
