#N canvas 0 79 1600 821 10;
#X obj 45 47 inlet play;
#X obj 355 67 inlet note-list;
#X obj 746 67 inlet dur-list;
#X obj 1125 73 inlet velo-list;
#X obj 1118 219 list-extend;
#X obj 369 213 list-extend;
#X obj 759 218 list-extend;
#X obj 726 474 delay;
#X obj 747 308 car;
#X obj 787 307 cdr;
#X obj 759 268 t l l;
#X obj 726 367 t b f;
#X obj 619 693 dac~;
#X obj 558 488 mtof;
#X obj 625 660 *~ 0.1;
#X obj 582 537 osc~ 0;
#X obj 362 307 car;
#X obj 402 306 cdr;
#X obj 374 267 t l l;
#X obj 341 366 t b f;
#X obj 1112 297 car;
#X obj 1152 296 cdr;
#X obj 1120 260 t l l;
#X obj 1091 356 t b f;
#X obj 1075 452 / 100;
#X obj 593 254 list-accum;
#X obj 751 127 t l l;
#X obj 553 305 delay;
#X obj 571 110 t b b b b;
#X obj 726 517 spigot;
#X msg 640 330 1;
#X msg 610 381 0;
#X obj 541 261 t b b;
#X obj 726 541 s \$0-loop;
#X obj 579 69 r \$0-loop;
#X obj 636 299 print accum;
#X obj 45 89 s \$0-play;
#X obj 498 83 r \$0-play;
#X obj 522 208 r \$0-play;
#X obj 566 347 t b b;
#X obj 638 617 *~ 0;
#X obj 1278 73 inlet base;
#X obj 1284 114 s \$0-base;
#X connect 0 0 36 0;
#X connect 1 0 5 1;
#X connect 2 0 26 0;
#X connect 3 0 4 1;
#X connect 4 0 22 0;
#X connect 5 0 18 0;
#X connect 6 0 10 0;
#X connect 7 0 29 0;
#X connect 8 0 11 0;
#X connect 9 0 6 1;
#X connect 10 0 8 0;
#X connect 10 1 9 0;
#X connect 11 0 7 0;
#X connect 11 1 7 1;
#X connect 13 0 15 0;
#X connect 14 0 12 0;
#X connect 14 0 12 1;
#X connect 15 0 40 0;
#X connect 16 0 19 0;
#X connect 17 0 5 1;
#X connect 18 0 16 0;
#X connect 18 1 17 0;
#X connect 19 1 13 0;
#X connect 20 0 23 0;
#X connect 21 0 4 1;
#X connect 22 0 20 0;
#X connect 22 1 21 0;
#X connect 23 1 24 0;
#X connect 24 0 40 1;
#X connect 25 0 27 1;
#X connect 25 0 35 0;
#X connect 26 0 25 0;
#X connect 26 1 6 1;
#X connect 27 0 39 0;
#X connect 28 1 5 0;
#X connect 28 2 4 0;
#X connect 28 3 6 0;
#X connect 29 0 33 0;
#X connect 30 0 29 1;
#X connect 31 0 29 1;
#X connect 31 0 40 1;
#X connect 32 0 27 0;
#X connect 32 1 30 0;
#X connect 34 0 28 0;
#X connect 37 0 28 0;
#X connect 38 0 32 0;
#X connect 39 1 31 0;
#X connect 40 0 14 0;
