#N canvas 1 79 450 300 10;
#X obj 124 31 inlet bang;
#X obj 159 254 outlet;
#X msg 123 152 0;
#X msg 205 153 5;
#X obj 153 86 random 3;
#X msg 165 153 0;
#X obj 141 117 select 1 2 3;
#X connect 0 0 4 0;
#X connect 2 0 1 0;
#X connect 3 0 1 0;
#X connect 4 0 6 0;
#X connect 5 0 1 0;
#X connect 6 0 2 0;
#X connect 6 1 5 0;
#X connect 6 2 3 0;
