#N canvas 763 189 620 457 10;
#X obj 120 31 inlet bang;
#X obj 120 251 S-four;
#X obj 288 346 outlet;
#X obj 282 178 random 5;
#X obj 270 209 select 0 1 2 3 4;
#X obj 120 80 random 2;
#X obj 120 120 select 0 1;
#X msg 419 250 -5 2 2 1;
#X msg 490 250 -8 4 3 1;
#X msg 187 251 7 -2 -2 -3;
#X msg 270 249 9 -2 -2 2;
#X msg 349 249 -4 1 2 1;
#X connect 0 0 5 0;
#X connect 1 0 2 0;
#X connect 3 0 4 0;
#X connect 4 0 9 0;
#X connect 4 1 10 0;
#X connect 4 2 11 0;
#X connect 4 3 7 0;
#X connect 4 4 8 0;
#X connect 5 0 6 0;
#X connect 6 0 1 0;
#X connect 6 1 3 0;
#X connect 7 0 2 0;
#X connect 8 0 2 0;
#X connect 9 0 2 0;
#X connect 10 0 2 0;
#X connect 11 0 2 0;
