#N canvas 551 131 450 300 10;
#X obj 146 7 inlet bang;
#X obj 159 254 outlet;
#X obj 146 35 random 3;
#X msg 257 136 0 1 -1;
#X msg 74 134 0 -1 1;
#X msg 139 135 0 3 2;
#X msg 320 135 0 2 3;
#X msg 186 136 5 -2 -3;
#X obj 140 89 select 1 2 3 4 5;
#X connect 0 0 2 0;
#X connect 2 0 8 0;
#X connect 3 0 1 0;
#X connect 4 0 1 0;
#X connect 5 0 1 0;
#X connect 6 0 1 0;
#X connect 7 0 1 0;
#X connect 8 0 4 0;
#X connect 8 1 5 0;
#X connect 8 2 7 0;
#X connect 8 3 3 0;
#X connect 8 4 6 0;
