#N canvas 551 131 450 300 10;
#X obj 166 21 inlet bang;
#X obj 159 254 outlet;
#X msg 354 148 1 -1;
#X msg 315 146 -1 1;
#X msg 278 147 0 0;
#X msg 244 151 3 2;
#X msg 167 147 2 3;
#X msg 396 148 0 5;
#X msg 205 148 5 0;
#X obj 173 102 select 1 2 3 4 5 6 7;
#X obj 162 64 random 7;
#X connect 0 0 10 0;
#X connect 2 0 1 0;
#X connect 3 0 1 0;
#X connect 4 0 1 0;
#X connect 5 0 1 0;
#X connect 6 0 1 0;
#X connect 7 0 1 0;
#X connect 8 0 1 0;
#X connect 9 0 6 0;
#X connect 9 1 8 0;
#X connect 9 2 5 0;
#X connect 9 3 4 0;
#X connect 9 4 3 0;
#X connect 9 5 2 0;
#X connect 9 6 7 0;
#X connect 10 0 9 0;
